<?xml version="1.0" encoding="UTF-8"?>
<svg xmlns="http://www.w3.org/2000/svg" xmlns:xlink="http://www.w3.org/1999/xlink" width="515px" height="400px" viewBox="0 0 515 400" version="1.1">
<g id="surface1">
<path style=" stroke:none;fill-rule:nonzero;fill:rgb(94.901961%,94.901961%,94.901961%);fill-opacity:1;" d="M 67.1875 176.019531 C 48.015625 167.960938 32.648438 152.878906 24.230469 133.855469 C 19.519531 123.078125 17.21875 111.390625 15.910156 99.703125 C 14.625 88.234375 14.363281 76.140625 19.296875 65.707031 C 24.789062 54.089844 35.972656 46.210938 48.757812 44.953125 C 61.539062 43.695312 74.042969 49.242188 81.695312 59.5625 C 84.933594 63.933594 87.210938 69.171875 87.265625 74.609375 C 87.390625 86.015625 78.222656 95.171875 74.203125 105.84375 C 70.046875 116.875 71.542969 129.097656 72.25 140.863281 C 72.957031 152.628906 72.507812 165.386719 65.375 174.765625 "/>
<path style=" stroke:none;fill-rule:nonzero;fill:rgb(94.901961%,94.901961%,94.901961%);fill-opacity:1;" d="M 411.003906 320.246094 C 431.25 315.503906 448.917969 303.195312 460.390625 285.84375 C 466.828125 276.003906 471.042969 264.863281 474.285156 253.558594 C 477.460938 242.464844 479.738281 230.582031 476.613281 219.472656 C 473.132812 207.101562 463.417969 197.46875 451.023438 194.09375 C 438.632812 190.71875 425.375 194.101562 416.113281 203.003906 C 412.191406 206.769531 409.074219 211.558594 408.109375 216.910156 C 406.089844 228.136719 413.601562 238.691406 415.785156 249.886719 C 418.042969 261.453125 414.53125 273.253906 411.875 284.738281 C 409.214844 296.222656 407.53125 308.875 413.003906 319.3125 "/>
<path style=" stroke:none;fill-rule:nonzero;fill:rgb(90.196078%,90.196078%,90.196078%);fill-opacity:1;" d="M 256.609375 301.933594 C 227.753906 302.023438 199.675781 292.554688 176.761719 275.003906 C 154.328125 257.851562 137.9375 233.996094 129.96875 206.894531 L 131.109375 206.5625 C 147.222656 262.015625 198.832031 300.742188 256.609375 300.742188 C 273.882812 300.777344 290.992188 297.359375 306.933594 290.695312 L 307.390625 291.792969 C 291.304688 298.515625 274.042969 301.964844 256.609375 301.933594 Z M 256.609375 301.933594 "/>
<path style=" stroke:none;fill-rule:nonzero;fill:rgb(90.196078%,90.196078%,90.196078%);fill-opacity:1;" d="M 381.351562 130.902344 C 364.210938 76.070312 314.082031 39.226562 256.609375 39.226562 C 239.578125 39.195312 222.707031 42.515625 206.957031 48.996094 L 206.503906 47.898438 C 249.363281 30.335938 298.28125 36.515625 335.425781 64.191406 C 357.652344 80.851562 374.109375 104.054688 382.488281 130.550781 Z M 381.351562 130.902344 "/>
<path style=" stroke:none;fill-rule:nonzero;fill:rgb(24.705882%,23.921569%,33.72549%);fill-opacity:1;" d="M 416.988281 343.535156 C 362.945312 343.535156 318.980469 299.542969 318.980469 245.46875 C 318.980469 191.394531 362.945312 147.398438 416.988281 147.398438 C 471.03125 147.398438 515 191.394531 515 245.46875 C 515 299.542969 471.03125 343.535156 416.988281 343.535156 Z M 416.988281 148.589844 C 363.601562 148.589844 320.167969 192.046875 320.167969 245.46875 C 320.167969 298.886719 363.601562 342.347656 416.988281 342.347656 C 470.378906 342.347656 513.8125 298.886719 513.8125 245.46875 C 513.8125 192.046875 470.378906 148.589844 416.988281 148.589844 Z M 416.988281 148.589844 "/>
<path style=" stroke:none;fill-rule:nonzero;fill:rgb(24.705882%,23.921569%,33.72549%);fill-opacity:1;" d="M 98.011719 196.136719 C 43.96875 196.136719 0 152.144531 0 98.066406 C 0 43.992188 43.96875 0 98.011719 0 C 152.054688 0 196.019531 43.992188 196.019531 98.066406 C 196.019531 152.144531 152.054688 196.136719 98.011719 196.136719 Z M 98.011719 1.1875 C 44.621094 1.1875 1.1875 44.648438 1.1875 98.066406 C 1.1875 151.488281 44.621094 194.949219 98.011719 194.949219 C 151.398438 194.949219 194.832031 151.488281 194.832031 98.066406 C 194.832031 44.648438 151.398438 1.1875 98.011719 1.1875 Z M 98.011719 1.1875 "/>
<path style=" stroke:none;fill-rule:nonzero;fill:rgb(62.745098%,38.039216%,41.568627%);fill-opacity:1;" d="M 90.390625 98.621094 L 81.734375 115.4375 L 90.28125 120.339844 C 90.28125 120.339844 96.144531 101.449219 96.316406 100.730469 C 98.125 99.992188 99.292969 98.210938 99.246094 96.253906 C 99.203125 94.300781 97.957031 92.574219 96.113281 91.917969 C 94.273438 91.261719 92.214844 91.808594 90.945312 93.296875 C 89.675781 94.785156 89.453125 96.902344 90.390625 98.621094 Z M 90.390625 98.621094 "/>
<path style=" stroke:none;fill-rule:nonzero;fill:rgb(24.705882%,23.921569%,33.72549%);fill-opacity:1;" d="M 45.972656 100.90625 C 49.832031 115.21875 63.710938 124.308594 75.234375 135.207031 C 78.101562 136.214844 81.261719 135.96875 83.941406 134.523438 C 86.617188 133.082031 88.5625 130.574219 89.300781 127.625 L 93.183594 112.414062 L 83.3125 112.152344 L 79.226562 116.59375 L 66.007812 107.167969 Z M 45.972656 100.90625 "/>
<path style=" stroke:none;fill-rule:nonzero;fill:rgb(100%,71.372549%,71.372549%);fill-opacity:1;" d="M 402.417969 260.707031 C 405.902344 260.933594 408.574219 263.898438 408.441406 267.390625 C 408.421875 267.730469 408.375 268.070312 408.300781 268.402344 L 427.335938 280.402344 L 416.8125 285.058594 L 400.351562 272.949219 C 397.558594 272.097656 395.691406 269.464844 395.804688 266.546875 C 395.96875 263.148438 398.855469 260.53125 402.25 260.695312 C 402.304688 260.699219 402.363281 260.703125 402.417969 260.707031 Z M 402.417969 260.707031 "/>
<path style=" stroke:none;fill-rule:nonzero;fill:rgb(42.352941%,38.823529%,100%);fill-opacity:1;" d="M 420.773438 274.949219 L 416.054688 284.6875 L 434.707031 296.695312 C 437.402344 298.445312 440.816406 298.675781 443.726562 297.300781 C 447.296875 295.589844 449.308594 291.71875 448.65625 287.8125 L 442.601562 253.242188 C 441.757812 248.21875 437.140625 244.730469 432.078125 245.300781 C 427.089844 245.847656 423.484375 250.335938 424.03125 255.332031 C 424.042969 255.425781 424.054688 255.519531 424.066406 255.613281 C 424.113281 255.945312 424.175781 256.273438 424.257812 256.597656 L 430.863281 281.183594 Z M 420.773438 274.949219 "/>
<path style=" stroke:none;fill-rule:nonzero;fill:rgb(24.705882%,23.921569%,33.72549%);fill-opacity:1;" d="M 403.820312 278.894531 L 396.796875 260.761719 C 396.300781 259.46875 396.941406 258.019531 398.230469 257.515625 L 402.179688 255.984375 C 403.472656 255.484375 404.921875 256.125 405.425781 257.417969 L 412.449219 275.550781 C 412.945312 276.84375 412.304688 278.296875 411.015625 278.796875 L 407.066406 280.328125 C 405.773438 280.828125 404.324219 280.1875 403.820312 278.894531 Z M 403.820312 278.894531 "/>
<path style=" stroke:none;fill-rule:nonzero;fill:rgb(42.352941%,38.823529%,100%);fill-opacity:1;" d="M 399.050781 258.261719 C 398.355469 258.53125 398.011719 259.316406 398.277344 260.011719 L 405.300781 278.144531 C 405.574219 278.839844 406.355469 279.183594 407.050781 278.917969 L 411 277.386719 C 411.695312 277.113281 412.042969 276.332031 411.773438 275.636719 L 404.75 257.5 C 404.480469 256.804688 403.695312 256.460938 403 256.730469 Z M 399.050781 258.261719 "/>
<path style=" stroke:none;fill-rule:nonzero;fill:rgb(100%,72.156863%,72.156863%);fill-opacity:1;" d="M 446.121094 316.734375 L 419.445312 316.734375 L 419.445312 290.042969 L 446.121094 290.042969 Z M 446.121094 316.734375 "/>
<path style=" stroke:none;fill-rule:nonzero;fill:rgb(100%,71.372549%,71.372549%);fill-opacity:1;" d="M 356.191406 368.644531 L 346.007812 365.214844 L 340.332031 392.957031 L 347.234375 395.28125 Z M 356.191406 368.644531 "/>
<path style=" stroke:none;fill-rule:nonzero;fill:rgb(100%,71.372549%,71.372549%);fill-opacity:1;" d="M 374.257812 363.363281 L 363.800781 365.839844 L 373.636719 392.394531 L 380.722656 390.714844 Z M 374.257812 363.363281 "/>
<path style=" stroke:none;fill-rule:nonzero;fill:rgb(18.431373%,18.039216%,25.490196%);fill-opacity:1;" d="M 445.164062 323.707031 C 450.507812 359.367188 379.316406 338.28125 379.316406 338.28125 L 356.996094 369.09375 L 343.925781 366.714844 C 343.925781 366.714844 349.808594 348.21875 360.308594 323.425781 C 364.972656 312.414062 417.925781 315.101562 417.925781 315.101562 L 419.027344 306.46875 L 449.320312 305.875 Z M 445.164062 323.707031 "/>
<path style=" stroke:none;fill-rule:nonzero;fill:rgb(18.431373%,18.039216%,25.490196%);fill-opacity:1;" d="M 377.070312 330.632812 L 357.679688 331.078125 C 360.789062 357.828125 363.53125 368.5 363.53125 368.5 L 374.816406 364.933594 Z M 377.070312 330.632812 "/>
<path style=" stroke:none;fill-rule:nonzero;fill:rgb(42.352941%,38.823529%,100%);fill-opacity:1;" d="M 429.925781 246.675781 L 435.292969 239.769531 L 442.953125 239.4375 L 443.714844 245.933594 L 447.511719 247.683594 C 451.300781 262.085938 451.886719 277.144531 449.226562 291.800781 C 448.191406 292.777344 447.761719 294.234375 448.109375 295.617188 L 448.355469 296.597656 L 448.332031 296.632812 C 447.523438 297.910156 447.25 299.449219 447.570312 300.925781 L 449.382812 304.148438 C 450.699219 306.492188 450.917969 309.296875 449.976562 311.820312 C 449.039062 314.339844 447.042969 316.320312 444.515625 317.234375 C 433.375 321.273438 422.933594 322.777344 415.207031 311.441406 L 412.777344 271.933594 Z M 429.925781 246.675781 "/>
<path style=" stroke:none;fill-rule:nonzero;fill:rgb(100%,72.156863%,72.156863%);fill-opacity:1;" d="M 449.710938 227.4375 C 449.710938 235.261719 443.371094 241.605469 435.550781 241.605469 C 427.730469 241.605469 421.390625 235.261719 421.390625 227.4375 C 421.390625 219.613281 427.730469 213.269531 435.550781 213.269531 C 443.371094 213.269531 449.710938 219.613281 449.710938 227.4375 Z M 449.710938 227.4375 "/>
<path style=" stroke:none;fill-rule:nonzero;fill:rgb(18.431373%,18.039216%,25.490196%);fill-opacity:1;" d="M 442.65625 210.355469 C 448.652344 210.472656 453.410156 216.035156 453.277344 222.785156 C 457.714844 227.417969 456.25 233.085938 452.542969 239.148438 C 445.757812 239.933594 444.175781 240.261719 438.230469 242.691406 L 437.445312 239.027344 L 435.667969 243.796875 C 434.160156 244.492188 432.660156 245.257812 431.167969 246.09375 C 430.101562 241.183594 430.367188 236.410156 433.242188 232.253906 C 435.792969 228.5625 429.578125 224.175781 425.132812 224.796875 L 425.199219 221.40625 L 424.082031 224.777344 C 422.347656 226.050781 420.433594 225.589844 418.464844 224.667969 C 415.277344 208.09375 439.957031 203.558594 442.65625 210.355469 Z M 442.65625 210.355469 "/>
<path style=" stroke:none;fill-rule:nonzero;fill:rgb(18.431373%,18.039216%,25.490196%);fill-opacity:1;" d="M 350.375 399.976562 L 345.835938 399.382812 L 345.585938 394.988281 L 342.949219 399.003906 L 330.914062 397.429688 C 329.730469 397.277344 328.78125 396.367188 328.578125 395.191406 C 328.375 394.015625 328.957031 392.839844 330.019531 392.292969 L 340.5 386.910156 L 341.066406 382.574219 L 351.097656 384.5 Z M 350.375 399.976562 "/>
<path style=" stroke:none;fill-rule:nonzero;fill:rgb(18.431373%,18.039216%,25.490196%);fill-opacity:1;" d="M 383.328125 397.472656 L 378.785156 398.058594 L 377.425781 393.875 L 375.902344 398.429688 L 363.863281 399.980469 C 362.675781 400.132812 361.53125 399.496094 361.03125 398.410156 C 360.535156 397.324219 360.800781 396.039062 361.6875 395.242188 L 370.449219 387.359375 L 369.890625 383.023438 L 380.082031 382.324219 Z M 383.328125 397.472656 "/>
<path style=" stroke:none;fill-rule:nonzero;fill:rgb(100%,71.372549%,71.372549%);fill-opacity:1;" d="M 404.125 264.019531 C 407.613281 264.25 410.28125 267.210938 410.148438 270.703125 C 410.128906 271.046875 410.082031 271.382812 410.007812 271.71875 L 429.042969 283.714844 L 418.519531 288.371094 L 402.058594 276.265625 C 399.265625 275.410156 397.398438 272.78125 397.511719 269.863281 C 397.675781 266.464844 400.5625 263.84375 403.957031 264.011719 C 404.015625 264.011719 404.070312 264.015625 404.125 264.019531 Z M 404.125 264.019531 "/>
<path style=" stroke:none;fill-rule:nonzero;fill:rgb(42.352941%,38.823529%,100%);fill-opacity:1;" d="M 422.480469 278.261719 L 417.761719 288 L 436.414062 300.007812 C 439.113281 301.761719 442.523438 301.992188 445.433594 300.613281 C 449.003906 298.902344 451.015625 295.035156 450.363281 291.125 L 444.3125 256.558594 C 443.46875 251.535156 438.847656 248.046875 433.789062 248.617188 C 428.796875 249.160156 425.195312 253.652344 425.738281 258.644531 C 425.75 258.738281 425.761719 258.832031 425.773438 258.925781 C 425.820312 259.257812 425.882812 259.589844 425.964844 259.914062 L 432.570312 284.5 Z M 422.480469 278.261719 "/>
<path style=" stroke:none;fill-rule:nonzero;fill:rgb(62.745098%,38.039216%,41.568627%);fill-opacity:1;" d="M 65.585938 276.382812 L 71.570312 279.085938 L 84.828125 257.28125 L 75.996094 253.292969 Z M 65.585938 276.382812 "/>
<path style=" stroke:none;fill-rule:nonzero;fill:rgb(18.431373%,18.039216%,25.490196%);fill-opacity:1;" d="M 62.558594 282.53125 L 80.957031 290.835938 L 81.0625 290.605469 C 82.847656 286.648438 81.085938 281.992188 77.132812 280.207031 L 74.921875 276.140625 L 67.5 275.859375 L 65.894531 275.136719 Z M 62.558594 282.53125 "/>
<path style=" stroke:none;fill-rule:nonzero;fill:rgb(62.745098%,38.039216%,41.568627%);fill-opacity:1;" d="M 139.683594 246.730469 L 146.003906 244.957031 L 142.167969 219.722656 L 132.84375 222.34375 Z M 139.683594 246.730469 "/>
<path style=" stroke:none;fill-rule:nonzero;fill:rgb(18.431373%,18.039216%,25.490196%);fill-opacity:1;" d="M 141.3125 253.390625 L 160.746094 247.929688 L 160.675781 247.683594 C 159.503906 243.507812 155.167969 241.070312 150.988281 242.242188 L 146.683594 240.542969 L 140.816406 245.097656 L 139.121094 245.574219 Z M 141.3125 253.390625 "/>
<path style=" stroke:none;fill-rule:nonzero;fill:rgb(18.431373%,18.039216%,25.490196%);fill-opacity:1;" d="M 44.050781 173.003906 C 44.210938 177.679688 54.152344 190.300781 59.382812 192.109375 C 60.273438 192.417969 60.792969 192.585938 60.792969 192.585938 L 62.609375 192.035156 L 84.648438 185.363281 C 88.507812 187.636719 100.023438 188.789062 109.46875 189.367188 C 116.984375 189.828125 121.175781 193.757812 121.175781 193.757812 C 123.394531 210.636719 129.789062 222.941406 137.164062 238.066406 L 146.011719 236.527344 L 137.652344 180.195312 C 137.28125 177.707031 135.464844 175.679688 133.035156 175.042969 L 72.894531 159.304688 C 72.894531 159.304688 69.578125 158.703125 62.585938 162.082031 C 51.066406 167.640625 43.933594 169.597656 44.050781 173.003906 Z M 44.050781 173.003906 "/>
<path style=" stroke:none;fill-rule:nonzero;fill:rgb(18.431373%,18.039216%,25.490196%);fill-opacity:1;" d="M 55.542969 172.097656 C 53.523438 176.320312 56.515625 192.109375 60.316406 196.132812 L 61.324219 196.816406 L 61.664062 196.996094 C 63.945312 204.714844 88.417969 227.289062 88.417969 227.289062 C 80.152344 237.824219 72.785156 250.679688 69.5 265.082031 L 79.054688 268.578125 L 105.960938 228.386719 C 107.402344 226.234375 107.371094 223.410156 105.882812 221.289062 L 94.90625 205.644531 L 77.023438 170.980469 C 64.242188 170.585938 57.011719 169.027344 55.542969 172.097656 Z M 55.542969 172.097656 "/>
<path style=" stroke:none;fill-rule:nonzero;fill:rgb(24.705882%,23.921569%,33.72549%);fill-opacity:1;" d="M 44.410156 174.839844 C 44.378906 174.839844 43.679688 173.007812 43.664062 173.003906 C 43.425781 172.9375 40.203125 172.617188 40.929688 167.273438 L 41.855469 161.394531 L 40.949219 156.207031 L 39.425781 154.679688 L 41.875 152.230469 L 40.375 141.117188 L 39.796875 118.871094 C 38.351562 111.230469 38.730469 104.238281 45.734375 100.875 L 53.765625 93.421875 L 62.902344 93.308594 L 73.269531 99.460938 L 78.292969 109.480469 L 80.242188 136.632812 L 81.695312 140.03125 L 81.574219 140.144531 C 81.5625 140.152344 80.59375 141.027344 80.160156 141.511719 C 79.949219 141.808594 80.34375 144.046875 80.832031 145.949219 L 81.457031 150.640625 L 79.878906 151.769531 L 81.933594 154.195312 L 87.527344 163.660156 L 87.191406 163.574219 C 86.816406 163.480469 83.296875 168.765625 44.667969 174.644531 C 44.488281 174.671875 44.484375 174.839844 44.410156 174.839844 Z M 44.410156 174.839844 "/>
<path style=" stroke:none;fill-rule:nonzero;fill:rgb(24.705882%,23.921569%,33.72549%);fill-opacity:1;" d="M 88.640625 116.074219 L 85.441406 114.402344 C 84.398438 113.855469 83.992188 112.566406 84.539062 111.519531 L 92.195312 96.839844 C 92.742188 95.792969 94.03125 95.386719 95.074219 95.933594 L 98.273438 97.601562 C 99.316406 98.148438 99.722656 99.4375 99.179688 100.484375 L 91.523438 115.167969 C 90.976562 116.210938 89.6875 116.617188 88.640625 116.074219 Z M 88.640625 116.074219 "/>
<path style=" stroke:none;fill-rule:nonzero;fill:rgb(42.352941%,38.823529%,100%);fill-opacity:1;" d="M 94.308594 96.488281 C 93.746094 96.191406 93.050781 96.410156 92.757812 96.976562 L 85.101562 111.65625 C 84.808594 112.21875 85.027344 112.914062 85.589844 113.210938 L 88.789062 114.878906 C 89.351562 115.171875 90.046875 114.953125 90.339844 114.390625 L 97.996094 99.710938 C 98.289062 99.144531 98.070312 98.449219 97.507812 98.15625 Z M 94.308594 96.488281 "/>
<path style=" stroke:none;fill-rule:nonzero;fill:rgb(62.745098%,38.039216%,41.568627%);fill-opacity:1;" d="M 73.460938 78.230469 C 73.460938 85.453125 67.609375 91.304688 60.394531 91.304688 C 53.175781 91.304688 47.328125 85.453125 47.328125 78.230469 C 47.328125 71.011719 53.175781 65.160156 60.394531 65.160156 C 67.609375 65.160156 73.460938 71.011719 73.460938 78.230469 Z M 73.460938 78.230469 "/>
<path style=" stroke:none;fill-rule:nonzero;fill:rgb(18.431373%,18.039216%,25.490196%);fill-opacity:1;" d="M 53.96875 86.652344 C 53.394531 86.195312 52.679688 85.957031 51.949219 85.972656 C 51.488281 86.050781 51.085938 86.316406 50.835938 86.710938 C 50.699219 86.886719 50.480469 86.980469 50.261719 86.957031 C 48.867188 87.007812 45.894531 84.421875 45.691406 79.425781 C 45.59375 77.054688 44.175781 73.039062 46.433594 70.863281 C 46.585938 69.988281 48.351562 60.914062 56.300781 60.664062 C 64.441406 60.40625 69.863281 62.042969 71.164062 65.148438 C 72.066406 67.613281 72.753906 70.148438 73.21875 72.734375 L 73.488281 74.269531 L 72.851562 72.847656 C 72.839844 72.820312 71.675781 70.269531 69.519531 69.417969 C 69.484375 69.835938 69.378906 70.242188 69.207031 70.621094 C 68.503906 72.148438 66.730469 73.144531 64.6875 73.15625 C 63.277344 73.113281 61.882812 72.816406 60.578125 72.273438 C 60.882812 72.710938 60.898438 73.28125 60.625 73.734375 C 60.351562 74.191406 59.835938 74.441406 59.3125 74.375 L 58.933594 74.328125 C 58.6875 74.296875 58.457031 74.445312 58.382812 74.683594 C 58.304688 74.917969 58.410156 75.175781 58.628906 75.292969 L 58.960938 75.46875 L 58.558594 75.664062 C 55.214844 77.15625 53.300781 80.714844 53.898438 84.324219 L 54.367188 86.972656 Z M 53.96875 86.652344 "/>
<path style=" stroke:none;fill-rule:nonzero;fill:rgb(90.196078%,90.196078%,90.196078%);fill-opacity:1;" d="M 260.832031 288.664062 C 260.101562 288.699219 259.425781 288.269531 259.144531 287.59375 C 258.859375 286.917969 259.03125 286.136719 259.566406 285.640625 L 259.6875 285.164062 C 259.671875 285.125 259.65625 285.089844 259.640625 285.050781 C 258.902344 283.3125 257.195312 282.183594 255.308594 282.191406 C 253.421875 282.195312 251.722656 283.335938 251 285.082031 C 249.585938 288.488281 247.785156 291.898438 247.34375 295.5 C 247.148438 297.09375 247.230469 298.707031 247.585938 300.269531 C 244.265625 293.023438 242.542969 285.148438 242.53125 277.179688 C 242.53125 275.179688 242.640625 273.179688 242.863281 271.191406 C 243.046875 269.5625 243.304688 267.945312 243.628906 266.339844 C 245.410156 257.625 249.226562 249.453125 254.777344 242.503906 C 257.460938 241.039062 259.632812 238.785156 260.996094 236.042969 C 261.492188 235.058594 261.839844 234.007812 262.035156 232.925781 C 261.730469 232.964844 261.421875 232.988281 261.121094 233.007812 C 261.027344 233.015625 260.925781 233.019531 260.832031 233.023438 L 260.796875 233.027344 C 260.117188 233.054688 259.484375 232.683594 259.175781 232.078125 C 258.871094 231.46875 258.949219 230.738281 259.378906 230.207031 C 259.507812 230.046875 259.640625 229.886719 259.769531 229.726562 C 259.96875 229.476562 260.171875 229.234375 260.371094 228.984375 C 260.394531 228.960938 260.414062 228.9375 260.4375 228.910156 C 260.664062 228.628906 260.890625 228.347656 261.121094 228.066406 C 260.703125 227.417969 260.144531 226.875 259.480469 226.480469 C 257.195312 225.140625 254.035156 226.070312 252.382812 228.140625 C 250.722656 230.210938 250.410156 233.117188 250.988281 235.707031 C 251.554688 237.910156 252.492188 240 253.757812 241.886719 C 253.632812 242.046875 253.503906 242.199219 253.378906 242.359375 C 251.109375 245.277344 249.132812 248.414062 247.476562 251.71875 C 247.878906 248.015625 247.398438 244.269531 246.070312 240.789062 C 244.726562 237.546875 242.210938 234.8125 239.992188 232.007812 C 237.328125 228.640625 231.863281 230.109375 231.394531 234.378906 C 231.390625 234.421875 231.382812 234.464844 231.378906 234.503906 C 231.710938 234.691406 232.03125 234.886719 232.347656 235.097656 C 233.160156 235.640625 233.554688 236.625 233.34375 237.578125 C 233.132812 238.53125 232.359375 239.257812 231.394531 239.40625 L 231.34375 239.414062 C 231.464844 240.601562 231.671875 241.777344 231.964844 242.933594 C 233.699219 249.464844 238.074219 254.972656 244.035156 258.136719 C 244.230469 258.238281 244.417969 258.335938 244.613281 258.429688 C 242.945312 263.152344 241.902344 268.074219 241.503906 273.066406 C 241.277344 276.011719 241.292969 278.96875 241.542969 281.914062 L 241.527344 281.808594 C 240.894531 278.535156 239.148438 275.582031 236.589844 273.449219 C 232.785156 270.324219 227.414062 269.171875 223.3125 266.660156 C 222.425781 266.089844 221.285156 266.085938 220.390625 266.652344 C 219.5 267.222656 219.015625 268.253906 219.15625 269.304688 C 219.160156 269.339844 219.164062 269.378906 219.171875 269.414062 C 219.78125 269.664062 220.378906 269.949219 220.953125 270.273438 C 221.285156 270.460938 221.605469 270.65625 221.921875 270.867188 C 222.734375 271.410156 223.128906 272.394531 222.917969 273.347656 C 222.707031 274.300781 221.933594 275.027344 220.96875 275.175781 L 220.917969 275.183594 C 220.882812 275.1875 220.855469 275.191406 220.820312 275.199219 C 221.863281 277.691406 223.332031 279.992188 225.152344 281.988281 C 229.707031 286.875 236.074219 289.671875 242.75 289.714844 L 242.753906 289.714844 C 243.652344 293.613281 244.953125 297.410156 246.632812 301.039062 L 260.484375 301.039062 C 260.535156 300.886719 260.578125 300.726562 260.625 300.574219 C 259.34375 300.652344 258.054688 300.578125 256.792969 300.34375 C 257.820312 299.082031 258.847656 297.8125 259.875 296.550781 C 259.898438 296.527344 259.917969 296.5 259.9375 296.476562 C 260.460938 295.828125 260.988281 295.1875 261.507812 294.542969 C 261.535156 292.5625 261.308594 290.585938 260.832031 288.664062 Z M 260.832031 288.664062 "/>
<path style=" stroke:none;fill-rule:nonzero;fill:rgb(90.196078%,90.196078%,90.196078%);fill-opacity:1;" d="M 327.417969 73.738281 C 327.964844 74.226562 328.152344 75.003906 327.882812 75.6875 C 327.613281 76.367188 326.945312 76.808594 326.214844 76.789062 L 325.796875 77.046875 C 325.78125 77.085938 325.765625 77.121094 325.75 77.160156 C 325.066406 78.921875 325.5 80.921875 326.859375 82.234375 C 328.214844 83.546875 330.226562 83.917969 331.960938 83.171875 C 335.351562 81.722656 339.019531 80.535156 341.847656 78.265625 C 343.097656 77.261719 344.164062 76.046875 345 74.679688 C 342.324219 82.1875 338.066406 89.03125 332.511719 94.746094 C 331.117188 96.179688 329.644531 97.53125 328.097656 98.800781 C 326.832031 99.839844 325.519531 100.820312 324.164062 101.742188 C 316.8125 106.742188 308.378906 109.921875 299.554688 111.027344 C 296.609375 110.203125 293.484375 110.300781 290.597656 111.308594 C 289.554688 111.667969 288.570312 112.175781 287.675781 112.816406 C 287.921875 113 288.160156 113.199219 288.390625 113.394531 C 288.460938 113.457031 288.535156 113.523438 288.605469 113.585938 L 288.632812 113.609375 C 289.140625 114.0625 289.335938 114.773438 289.132812 115.421875 C 288.925781 116.070312 288.359375 116.539062 287.683594 116.617188 C 287.476562 116.640625 287.273438 116.667969 287.066406 116.691406 C 286.75 116.730469 286.433594 116.761719 286.121094 116.800781 C 286.085938 116.800781 286.054688 116.804688 286.023438 116.808594 C 285.660156 116.851562 285.304688 116.890625 284.941406 116.933594 C 284.789062 117.691406 284.8125 118.46875 285.011719 119.214844 C 285.714844 121.773438 288.621094 123.3125 291.25 122.984375 C 293.882812 122.660156 296.136719 120.796875 297.527344 118.539062 C 298.660156 116.566406 299.445312 114.417969 299.855469 112.179688 C 300.054688 112.152344 300.253906 112.132812 300.453125 112.105469 C 304.117188 111.597656 307.71875 110.734375 311.210938 109.527344 C 308.339844 111.894531 306.070312 114.914062 304.59375 118.332031 C 303.292969 121.59375 303.191406 125.3125 302.824219 128.867188 C 302.382812 133.140625 307.320312 135.902344 310.636719 133.175781 C 310.667969 133.148438 310.699219 133.121094 310.730469 133.09375 C 310.625 132.730469 310.53125 132.363281 310.453125 131.996094 C 310.25 131.039062 310.652344 130.058594 311.46875 129.523438 C 312.285156 128.988281 313.347656 129.007812 314.140625 129.574219 L 314.179688 129.605469 C 314.925781 128.671875 315.597656 127.683594 316.191406 126.648438 C 319.503906 120.761719 320.214844 113.761719 318.152344 107.332031 C 318.082031 107.125 318.019531 106.921875 317.945312 106.71875 C 322.433594 104.5 326.613281 101.707031 330.378906 98.410156 C 332.59375 96.457031 334.648438 94.328125 336.523438 92.046875 L 336.460938 92.128906 C 334.632812 94.917969 333.824219 98.25 334.167969 101.566406 C 334.710938 106.460938 337.753906 111.035156 338.9375 115.699219 C 339.175781 116.730469 339.992188 117.527344 341.027344 117.746094 C 342.0625 117.964844 343.128906 117.558594 343.761719 116.710938 C 343.78125 116.679688 343.804688 116.652344 343.824219 116.621094 C 343.5625 116.015625 343.335938 115.394531 343.148438 114.761719 C 343.042969 114.398438 342.949219 114.03125 342.867188 113.660156 C 342.667969 112.707031 343.070312 111.722656 343.886719 111.1875 C 344.703125 110.652344 345.761719 110.675781 346.558594 111.242188 L 346.597656 111.269531 C 346.625 111.289062 346.652344 111.308594 346.679688 111.328125 C 347.671875 108.8125 348.222656 106.140625 348.3125 103.4375 C 348.460938 96.757812 345.851562 90.3125 341.101562 85.617188 L 341.097656 85.613281 C 343.175781 82.195312 344.890625 78.566406 346.21875 74.792969 L 336.300781 65.121094 C 336.15625 65.195312 336.015625 65.277344 335.875 65.355469 C 336.847656 66.195312 337.71875 67.148438 338.460938 68.199219 C 336.84375 68.382812 335.222656 68.578125 333.605469 68.761719 C 333.570312 68.761719 333.539062 68.765625 333.507812 68.769531 C 332.683594 68.867188 331.859375 68.960938 331.035156 69.058594 C 329.632812 70.457031 328.417969 72.03125 327.417969 73.738281 Z M 327.417969 73.738281 "/>
<path style=" stroke:none;fill-rule:nonzero;fill:rgb(62.745098%,38.039216%,41.568627%);fill-opacity:1;" d="M 88.601562 112.535156 L 76.113281 126.738281 L 83.207031 133.578125 C 83.207031 133.578125 93.492188 116.683594 93.835938 116.03125 C 95.769531 115.753906 97.335938 114.3125 97.769531 112.402344 C 98.203125 110.496094 97.414062 108.519531 95.789062 107.433594 C 94.160156 106.347656 92.035156 106.378906 90.441406 107.511719 C 88.847656 108.644531 88.113281 110.644531 88.601562 112.535156 Z M 88.601562 112.535156 "/>
<path style=" stroke:none;fill-rule:nonzero;fill:rgb(24.705882%,23.921569%,33.72549%);fill-opacity:1;" d="M 44.96875 103.921875 C 45.226562 118.742188 56.46875 130.945312 64.992188 144.324219 C 67.527344 146 70.652344 146.53125 73.601562 145.785156 C 76.546875 145.039062 79.046875 143.082031 80.480469 140.398438 L 87.953125 126.597656 L 78.441406 123.933594 L 73.398438 127.246094 L 62.875 114.882812 Z M 44.96875 103.921875 "/>
</g>
</svg>
