<svg width="1000" height="1000" viewBox="0 0 1000 1000" fill="none" xmlns="http://www.w3.org/2000/svg">
<path d="M953.838 621.093C948.506 654.988 931.985 687.887 904.722 708.705C877.891 729.21 843.514 736.495 810.33 742.757C770.529 750.278 730.619 757.152 690.6 763.38C684.927 764.284 679.25 765.157 673.568 766H440.476C440.24 765.686 439.991 765.358 439.756 765.03C439.376 764.48 438.996 763.93 438.629 763.38C438.42 763.065 438.21 762.738 438 762.41H584.207C588.356 762.406 592.334 760.758 595.268 757.825C598.203 754.892 599.856 750.916 599.863 746.766V551.601C600.806 548.64 601.683 545.666 602.483 542.652C606.211 528.62 608.637 514.274 609.727 499.796C610.514 489.708 610.75 479.619 610.579 469.518C610.095 441.755 606.466 413.992 602.522 386.426C602.234 384.395 601.933 382.351 601.644 380.32C598.867 361.165 596.339 340.32 605.994 323.537C617.038 304.329 641.55 296.324 663.625 298.289C703.334 301.84 736.781 332.249 754.166 368.135C771.538 404.008 775.428 444.808 777.014 484.637C777.852 505.758 777.761 527.821 774.813 549.007C784.769 526.236 794.735 503.465 804.709 480.694C810.028 468.548 815.622 456.01 825.474 447.127C846.069 428.535 880.131 432.282 902.128 449.21C924.112 466.151 936.164 492.918 944.182 519.475C954.113 552.321 959.183 587.199 953.838 621.093Z" fill="#F2F2F2"/>
<path d="M867.166 438.88C881.598 464.208 888.22 493.251 888.061 522.233C887.838 550.968 881.423 579.325 869.245 605.405C858.23 628.953 842.883 650.262 823.991 668.24C805.346 686.178 783.222 700.182 758.958 709.404C730.803 719.86 700.352 722.727 670.713 717.713C666.596 717.011 662.508 716.162 658.452 715.163C655.991 714.562 654.941 718.325 657.405 718.926C688.246 726.501 720.591 725.579 750.943 716.261C776.222 708.202 799.548 695.053 819.457 677.639C839.612 660.178 856.281 639.122 868.595 615.566C882.07 589.777 889.932 561.471 891.671 532.481C893.391 503.064 888.414 473.123 875.575 446.437C874.019 443.204 872.35 440.028 870.567 436.91C870.294 436.482 869.864 436.176 869.368 436.056C868.871 435.936 868.347 436.011 867.906 436.267C867.465 436.522 867.141 436.938 867.003 437.425C866.865 437.913 866.923 438.434 867.166 438.88Z" fill="white"/>
<path d="M658.338 298.948C674.132 328.292 686.441 359.411 695.009 391.659C712.16 456.248 714.743 523.888 702.567 589.614C696.489 622.453 686.576 654.451 673.035 684.94C659.533 715.173 640.094 747.028 606.889 757.613C603.142 758.802 599.301 759.668 595.408 760.2C592.94 760.541 593.991 764.317 596.441 763.978C630.789 759.227 654.656 730.467 669.624 701.15C685.111 670.815 696.139 637.874 703.473 604.616C718.008 538.256 717.485 469.444 701.944 403.316C694.223 370.373 682.684 338.46 667.564 308.235C665.665 304.45 663.709 300.695 661.695 296.97C660.499 294.754 657.141 296.73 658.338 298.948Z" fill="white"/>
<path d="M494.074 294H259.926C255.174 294.006 250.618 295.888 247.257 299.233C243.897 302.577 242.006 307.112 242 311.843V428.617H278.035C280.67 428.61 283.264 429.272 285.571 430.542C287.877 431.811 289.82 433.645 291.215 435.871L303.705 455.66L315.647 474.566L317.889 478.122L331.552 499.753L331.709 500H512V311.842C511.994 307.112 510.103 302.577 506.743 299.233C503.382 295.888 498.826 294.006 494.074 294Z" fill="#CCCCCC"/>
<path d="M402.171 330H283.829C280.692 330 277.683 331.159 275.465 333.222C273.246 335.285 272 338.083 272 341C272 343.917 273.246 346.715 275.465 348.778C277.683 350.841 280.692 352 283.829 352H402.171C405.308 352 408.317 350.841 410.535 348.778C412.754 346.715 414 343.917 414 341C414 338.083 412.754 335.285 410.535 333.222C408.317 331.159 405.308 330 402.171 330Z" fill="white"/>
<path d="M465.255 384H284.745C281.364 384 278.123 385.37 275.733 387.808C273.343 390.246 272 393.552 272 397C272 400.448 273.343 403.754 275.733 406.192C278.123 408.63 281.364 410 284.745 410H465.255C468.635 410 471.877 408.63 474.267 406.192C476.657 403.754 478 400.448 478 397C478 393.552 476.657 390.246 474.267 387.808C471.877 385.37 468.635 384 465.255 384Z" fill="white"/>
<path d="M476.805 436.912C475.79 434.848 474.179 433.101 472.16 431.877C470.141 430.653 467.797 430.002 465.403 430H286.805C286.533 430 286.273 430.012 286 430.025C288.33 431.237 290.294 433 291.701 435.144L304.142 454H465.403C467.524 454.001 469.61 453.491 471.469 452.519C473.328 451.547 474.899 450.144 476.036 448.439C477.173 446.735 477.84 444.785 477.975 442.77C478.109 440.754 477.707 438.74 476.805 436.912Z" fill="white"/>
<path d="M477.883 485.252C477.472 482.137 475.981 479.282 473.687 477.213C471.392 475.145 468.448 474.003 465.4 474H316L318.234 477.67L331.846 500H465.4C468.025 500.006 470.584 499.157 472.714 497.575C474.349 496.374 475.682 494.786 476.601 492.946C477.521 491.105 478.001 489.064 478 486.993C478.001 486.411 477.962 485.829 477.883 485.252Z" fill="white"/>
<path d="M622.479 395.193L604.04 387.992L512.105 352.132L402.113 309.228C397.636 307.492 392.652 307.6 388.255 309.53C383.858 311.46 380.406 315.053 378.655 319.523L374.809 329.383L365.655 352.803L352.352 386.886L342.369 412.452L334.887 431.619L324.903 457.172L317.409 476.352L317.199 476.905L316 479.96L329.803 501.905L329.962 502.155H585.626C587.973 502.153 590.291 502.677 592.409 503.688C594.526 504.7 596.39 506.173 597.862 508L598.942 505.262L612.14 471.482L632.766 418.652C634.507 414.177 634.402 409.195 632.474 404.797C630.546 400.4 626.951 396.946 622.479 395.193Z" fill="#6C63FF"/>
<path d="M522.593 394.065L512.787 390.337L413.907 352.768C411.023 351.682 407.816 351.75 404.984 352.958C402.152 354.165 399.925 356.415 398.79 359.215C397.672 362.024 397.743 365.149 398.986 367.908C400.23 370.666 402.544 372.833 405.424 373.934L438.083 386.342L478.476 401.686L512.787 414.732L514.111 415.23C516.992 416.319 520.199 416.251 523.029 415.039C525.858 413.828 528.078 411.573 529.202 408.77C530.325 405.966 530.261 402.843 529.022 400.086C527.783 397.329 525.471 395.164 522.593 394.065Z" fill="white"/>
<path d="M561.953 471.149L513.071 451.72L478.179 437.856L459.542 430.448L410.998 411.15L395.224 404.881C392.282 403.711 389.016 403.706 386.07 404.866C383.124 406.027 380.711 408.269 379.308 411.15C379.152 411.482 378.996 411.826 378.866 412.184C378.262 413.758 377.969 415.437 378.003 417.125C378.036 418.814 378.397 420.48 379.063 422.027C379.728 423.574 380.687 424.972 381.884 426.142C383.08 427.312 384.492 428.23 386.037 428.844L390.071 430.448L454.779 456.173L513.071 479.34L552.765 495.125C554.225 495.706 555.779 496.003 557.346 496C560.293 496.005 563.15 494.961 565.421 493.047C567.691 491.134 569.234 488.472 569.781 485.523C570.328 482.573 569.844 479.522 568.415 476.897C566.985 474.272 564.7 472.239 561.953 471.149Z" fill="white"/>
<path d="M512.489 498.633L509.366 497.422L478.83 485.561L450.935 474.732L402.558 455.949L379.159 446.86C377.62 446.261 375.977 445.969 374.324 446.003C372.671 446.036 371.042 446.393 369.528 447.053C368.014 447.713 366.645 448.664 365.501 449.851C364.357 451.038 363.459 452.438 362.858 453.971C362.258 455.503 361.967 457.138 362.003 458.783C362.038 460.427 362.399 462.049 363.065 463.554C363.73 465.06 364.688 466.42 365.882 467.557C367.077 468.694 368.485 469.586 370.026 470.181L381.738 474.732L440.169 497.422L446.18 499.755L446.802 500H516L512.489 498.633Z" fill="white"/>
<path d="M393.351 499.777L387.207 497.656L361.529 488.783C359.735 488.161 357.806 487.904 355.885 488.032C353.964 488.16 352.1 488.669 350.431 489.521C348.762 490.373 347.331 491.547 346.245 492.955C345.158 494.363 344.444 495.97 344.154 497.656C344.027 498.357 343.978 499.068 344.009 499.777C344.006 499.852 344.011 499.926 344.022 500H394L393.351 499.777Z" fill="white"/>
<path d="M446.079 500.515L440.021 498.141H345.281C345.156 498.926 345.108 499.721 345.138 500.515H332.186L332.342 500.764H446.706L446.079 500.515ZM446.079 500.515H332.186L332.342 500.764H446.706L446.079 500.515ZM446.079 500.515H332.186L332.342 500.764H446.706L446.079 500.515ZM446.706 500.764L446.079 500.515H332.186L332.342 500.764H446.706ZM218.201 763.377C214.068 763.371 210.107 761.719 207.184 758.784C204.262 755.849 202.618 751.87 202.611 747.719V444.294C202.615 440.141 204.258 436.159 207.181 433.222C210.103 430.284 214.066 428.63 218.201 428.623H242.499V426H218.201C213.374 426.009 208.748 427.94 205.336 431.369C201.925 434.798 200.006 439.446 200 444.294V747.719C200.004 751.226 201.012 754.658 202.903 757.606C204.794 760.554 207.489 762.894 210.667 764.348H440.7C440.491 764.033 440.282 763.705 440.073 763.377H218.201ZM598.986 503.859C597.29 502.052 595.245 500.613 592.974 499.629C590.704 498.646 588.258 498.14 585.786 498.141H333.792L319.691 475.611L319.351 475.06L307.391 455.953L293.995 434.551C292.353 431.936 290.079 429.781 287.386 428.286C284.692 426.791 281.666 426.005 278.588 426H218.201C213.374 426.009 208.748 427.94 205.336 431.369C201.925 434.798 200.006 439.446 200 444.294V747.719C200.004 751.226 201.012 754.658 202.903 757.606C204.794 760.554 207.489 762.894 210.667 764.348C213.03 765.44 215.6 766.004 218.201 766H585.786C588.391 766.004 590.966 765.44 593.333 764.348C596.511 762.894 599.206 760.554 601.097 757.606C602.988 754.658 603.996 751.226 604 747.719V516.436C604.003 511.752 602.207 507.247 598.986 503.859ZM601.389 747.719C601.381 751.872 599.735 755.852 596.81 758.788C593.885 761.723 589.92 763.373 585.786 763.377H218.201C214.068 763.371 210.107 761.719 207.184 758.784C204.262 755.849 202.618 751.87 202.611 747.719V444.294C202.615 440.141 204.258 436.159 207.181 433.222C210.103 430.284 214.066 428.63 218.201 428.623H278.588C281.228 428.616 283.825 429.285 286.135 430.568C288.445 431.851 290.391 433.705 291.788 435.954L304.297 455.953L316.257 475.06L318.502 478.654L332.186 500.515L332.342 500.764L585.786 500.764C589.923 500.768 593.889 502.42 596.815 505.358C599.74 508.296 601.385 512.28 601.389 516.436V747.719ZM446.079 500.515H332.186L332.342 500.764H446.706L446.079 500.515ZM446.079 500.515H332.186L332.342 500.764H446.706L446.079 500.515ZM446.079 500.515H332.186L332.342 500.764H446.706L446.079 500.515ZM446.079 500.515L440.021 498.141H333.792L319.691 475.611L318.502 478.654L332.186 500.515L332.342 500.764H446.706L446.079 500.515Z" fill="#3F3D56"/>
<path d="M144 608.533L136.662 624L74 602.827L84.8283 580L144 608.533Z" fill="#FFB8B8"/>
<path d="M127.473 634.825L142.627 603.141L161.659 612.245L138.098 661.506L136.643 660.809C131.981 658.58 128.396 654.589 126.676 649.716C124.956 644.843 125.243 639.487 127.473 634.825Z" fill="#2F2E41"/>
<path d="M189.438 464.486C189.438 464.486 135.968 450.953 111.729 470.897L98.1828 510.072L44 586.998L122.423 634.008L136.681 598.394L102.46 581.299L143.81 545.686L136.681 733.726L163.773 738C163.773 738 223.659 505.798 189.438 464.486Z" fill="#2F2E41"/>
<path d="M108 476L108.64 474.862C115.382 462.863 114.289 443.323 112.186 429.045C110.424 417.086 110.477 396.01 110.832 380.435C110.919 375.178 112.792 370.107 116.142 366.057C119.492 362.008 124.12 359.221 129.263 358.155C145.228 354.829 164.826 354.125 175.088 354C177.877 353.989 180.558 355.072 182.557 357.017C184.557 358.963 185.715 361.615 185.783 364.405C186.096 381.177 185.999 411.763 181.841 428.172C175.67 452.527 185.319 469.078 185.418 469.242L186 470.216L108 476Z" fill="#6C63FF"/>
<path d="M79.6884 544.67C81.4843 543.843 83.0697 542.646 84.3331 541.165C85.5964 539.684 86.507 537.955 87.0006 536.098C87.4942 534.242 87.5588 532.304 87.1899 530.421C86.8211 528.538 86.0276 526.756 84.8656 525.2L116 396H92.4617L64.984 522.653C62.3971 524.705 60.6823 527.599 60.1644 530.786C59.6465 533.974 60.3616 537.233 62.1741 539.947C63.9866 542.661 66.7706 544.641 69.9986 545.511C73.2266 546.382 76.6743 546.083 79.6884 544.67Z" fill="#FFB8B8"/>
<path d="M264 418.386L213.553 372L199.919 390.554L234.005 419.711L189.303 454.216C188.98 454.195 188.659 454.169 188.33 454.169C185.579 454.166 182.886 454.934 180.572 456.38C178.259 457.826 176.423 459.89 175.284 462.324C174.145 464.758 173.752 467.459 174.152 470.105C174.551 472.75 175.726 475.228 177.536 477.241C179.346 479.255 181.715 480.719 184.358 481.458C187.002 482.197 189.809 482.18 192.443 481.409C195.077 480.639 197.426 479.146 199.211 477.112C200.995 475.077 202.139 472.585 202.505 469.935L202.646 470.072L264 418.386Z" fill="#FFB8B8"/>
<path d="M128 360.443C128 360.443 95.3924 355.472 92.4354 378.832C89.4785 402.193 88 402.193 88 402.193C88 402.193 111.656 398.07 117.569 403.567C123.483 409.063 128 360.443 128 360.443Z" fill="#6C63FF"/>
<path d="M172 358.734C172 358.734 198.526 354.74 210.316 365.39C222.105 376.041 228 378.704 228 378.704C228 378.704 201.474 392.018 211.789 404C211.789 404 183.789 392.018 179.368 396.012C174.947 400.006 172 358.734 172 358.734Z" fill="#6C63FF"/>
<path d="M150.063 273.97C141.89 267.598 139.742 255.299 144.484 246.197C149.227 237.095 159.949 231.612 170.401 232.021C180.853 232.431 190.701 238.289 196.757 246.616C205.262 258.312 207.047 274.569 218.358 283.726C228.573 291.997 243.208 291.76 256.463 291.102C260.931 290.881 265.543 290.623 269.552 288.685C273.562 286.748 276.837 282.66 276.32 278.322C279.65 283.468 277.718 290.683 273.251 294.929C268.783 299.175 262.422 300.953 256.23 301.662C245.305 302.783 234.269 301.106 224.209 296.798C214.15 292.489 205.414 285.697 198.861 277.09C194.249 270.879 190.69 263.647 184.361 259.099C178.033 254.552 167.481 254.236 163.596 260.903C161.675 264.201 161.864 268.338 160.097 271.717C158.33 275.096 152.592 276.918 150.89 273.507" fill="#2F2E41"/>
<path d="M149 344C170.539 344 188 326.539 188 305C188 283.461 170.539 266 149 266C127.461 266 110 283.461 110 305C110 326.539 127.461 344 149 344Z" fill="#2F2E41"/>
<path d="M148 346C165.673 346 180 331.673 180 314C180 296.327 165.673 282 148 282C130.327 282 116 296.327 116 314C116 331.673 130.327 346 148 346Z" fill="#FFB8B8"/>
<path d="M120 289.189C124.519 290.216 123.04 298.093 126.611 301.148C129.833 303.904 134.472 301.07 138.526 300.044C143.644 298.748 149.002 300.646 153.728 303.065C158.453 305.484 163.01 308.487 168.166 309.614C173.321 310.741 179.433 309.47 182.323 304.894C185.086 300.518 184.069 294.617 181.907 289.889C179.219 284.011 175.001 279.033 169.73 275.519C164.458 272.004 158.345 270.094 152.083 270.003C145.82 269.913 139.659 271.647 134.296 275.009C128.933 278.37 124.584 283.225 121.74 289.023" fill="#2F2E41"/>
<path d="M953.838 621.093C948.506 654.988 931.985 687.887 904.722 708.705C877.891 729.21 843.514 736.495 810.33 742.757C770.529 750.278 730.619 757.152 690.6 763.38C684.927 764.284 679.25 765.157 673.568 766H440.476C440.24 765.686 439.991 765.358 439.756 765.03C439.376 764.48 438.996 763.93 438.629 763.38C438.42 763.065 438.21 762.738 438 762.41H584.207C588.356 762.406 592.334 760.758 595.268 757.825C598.203 754.892 599.856 750.916 599.863 746.766V551.601C600.806 548.64 601.683 545.666 602.483 542.652C606.211 528.62 608.637 514.274 609.727 499.796C610.514 489.708 610.75 479.619 610.579 469.518C610.095 441.755 606.466 413.992 602.522 386.426C602.234 384.395 601.933 382.351 601.644 380.32C598.867 361.165 596.339 340.32 605.994 323.537C617.038 304.329 641.55 296.324 663.625 298.289C703.334 301.84 736.781 332.249 754.166 368.135C771.538 404.008 775.428 444.808 777.014 484.637C777.852 505.758 777.761 527.821 774.813 549.007C784.769 526.236 794.735 503.465 804.709 480.694C810.028 468.548 815.622 456.01 825.474 447.127C846.069 428.535 880.131 432.282 902.128 449.21C924.112 466.151 936.164 492.918 944.182 519.475C954.113 552.321 959.183 587.199 953.838 621.093Z" fill="#F2F2F2"/>
<path d="M867.166 438.88C881.598 464.208 888.22 493.251 888.061 522.233C887.838 550.968 881.423 579.325 869.245 605.405C858.23 628.953 842.883 650.262 823.991 668.24C805.346 686.178 783.222 700.182 758.958 709.404C730.803 719.86 700.352 722.727 670.713 717.713C666.596 717.011 662.508 716.162 658.452 715.163C655.991 714.562 654.941 718.325 657.405 718.926C688.246 726.501 720.591 725.579 750.943 716.261C776.222 708.202 799.548 695.053 819.457 677.639C839.612 660.178 856.281 639.122 868.595 615.566C882.07 589.777 889.932 561.471 891.671 532.481C893.391 503.064 888.414 473.123 875.575 446.437C874.019 443.204 872.35 440.028 870.567 436.91C870.294 436.482 869.864 436.176 869.368 436.056C868.871 435.936 868.347 436.011 867.906 436.267C867.465 436.522 867.141 436.938 867.003 437.425C866.865 437.913 866.923 438.434 867.166 438.88Z" fill="white"/>
<path d="M658.338 298.948C674.132 328.292 686.441 359.411 695.009 391.659C712.16 456.248 714.743 523.888 702.567 589.614C696.489 622.453 686.576 654.451 673.035 684.94C659.533 715.173 640.094 747.028 606.889 757.613C603.142 758.802 599.301 759.668 595.408 760.2C592.94 760.541 593.991 764.317 596.441 763.978C630.789 759.227 654.656 730.467 669.624 701.15C685.111 670.815 696.139 637.874 703.473 604.616C718.008 538.256 717.485 469.444 701.944 403.316C694.223 370.373 682.684 338.46 667.564 308.235C665.665 304.45 663.709 300.695 661.695 296.97C660.499 294.754 657.141 296.73 658.338 298.948Z" fill="white"/>
<path d="M494.074 294H259.926C255.174 294.006 250.618 295.888 247.257 299.233C243.897 302.577 242.006 307.112 242 311.843V428.617H278.035C280.67 428.61 283.264 429.272 285.571 430.542C287.877 431.811 289.82 433.645 291.215 435.871L303.705 455.66L315.647 474.566L317.889 478.122L331.552 499.753L331.709 500H512V311.842C511.994 307.112 510.103 302.577 506.743 299.233C503.382 295.888 498.826 294.006 494.074 294Z" fill="#CCCCCC"/>
<path d="M402.171 330H283.829C280.692 330 277.683 331.159 275.465 333.222C273.246 335.285 272 338.083 272 341C272 343.917 273.246 346.715 275.465 348.778C277.683 350.841 280.692 352 283.829 352H402.171C405.308 352 408.317 350.841 410.535 348.778C412.754 346.715 414 343.917 414 341C414 338.083 412.754 335.285 410.535 333.222C408.317 331.159 405.308 330 402.171 330Z" fill="white"/>
<path d="M465.255 384H284.745C281.364 384 278.123 385.37 275.733 387.808C273.343 390.246 272 393.552 272 397C272 400.448 273.343 403.754 275.733 406.192C278.123 408.63 281.364 410 284.745 410H465.255C468.635 410 471.877 408.63 474.267 406.192C476.657 403.754 478 400.448 478 397C478 393.552 476.657 390.246 474.267 387.808C471.877 385.37 468.635 384 465.255 384Z" fill="white"/>
<path d="M476.805 436.912C475.79 434.848 474.179 433.101 472.16 431.877C470.141 430.653 467.797 430.002 465.403 430H286.805C286.533 430 286.273 430.012 286 430.025C288.33 431.237 290.294 433 291.701 435.144L304.142 454H465.403C467.524 454.001 469.61 453.491 471.469 452.519C473.328 451.547 474.899 450.144 476.036 448.439C477.173 446.735 477.84 444.785 477.975 442.77C478.109 440.754 477.707 438.74 476.805 436.912Z" fill="white"/>
<path d="M477.883 485.252C477.472 482.137 475.981 479.282 473.687 477.213C471.392 475.145 468.448 474.003 465.4 474H316L318.234 477.67L331.846 500H465.4C468.025 500.006 470.584 499.157 472.714 497.575C474.349 496.374 475.682 494.786 476.601 492.946C477.521 491.105 478.001 489.064 478 486.993C478.001 486.411 477.962 485.829 477.883 485.252Z" fill="white"/>
<path d="M622.479 395.193L604.04 387.992L512.105 352.132L402.113 309.228C397.636 307.492 392.652 307.6 388.255 309.53C383.858 311.46 380.406 315.053 378.655 319.523L374.809 329.383L365.655 352.803L352.352 386.886L342.369 412.452L334.887 431.619L324.903 457.172L317.409 476.352L317.199 476.905L316 479.96L329.803 501.905L329.962 502.155H585.626C587.973 502.153 590.291 502.677 592.409 503.688C594.526 504.7 596.39 506.173 597.862 508L598.942 505.262L612.14 471.482L632.766 418.652C634.507 414.177 634.402 409.195 632.474 404.797C630.546 400.4 626.951 396.946 622.479 395.193Z" fill="#6C63FF"/>
<path d="M522.593 394.065L512.787 390.337L413.907 352.768C411.023 351.682 407.816 351.75 404.984 352.958C402.152 354.165 399.925 356.415 398.79 359.215C397.672 362.024 397.743 365.149 398.986 367.908C400.23 370.666 402.544 372.833 405.424 373.934L438.083 386.342L478.476 401.686L512.787 414.732L514.111 415.23C516.992 416.319 520.199 416.251 523.029 415.039C525.858 413.828 528.078 411.573 529.202 408.77C530.325 405.966 530.261 402.843 529.022 400.086C527.783 397.329 525.471 395.164 522.593 394.065Z" fill="white"/>
<path d="M561.953 471.149L513.071 451.72L478.179 437.856L459.542 430.448L410.998 411.15L395.224 404.881C392.282 403.711 389.016 403.706 386.07 404.866C383.124 406.027 380.711 408.269 379.308 411.15C379.152 411.482 378.996 411.826 378.866 412.184C378.262 413.758 377.969 415.437 378.003 417.125C378.036 418.814 378.397 420.48 379.063 422.027C379.728 423.574 380.687 424.972 381.884 426.142C383.08 427.312 384.492 428.23 386.037 428.844L390.071 430.448L454.779 456.173L513.071 479.34L552.765 495.125C554.225 495.706 555.779 496.003 557.346 496C560.293 496.005 563.15 494.961 565.421 493.047C567.691 491.134 569.234 488.472 569.781 485.523C570.328 482.573 569.844 479.522 568.415 476.897C566.985 474.272 564.7 472.239 561.953 471.149Z" fill="white"/>
<path d="M512.489 498.633L509.366 497.422L478.83 485.561L450.935 474.732L402.558 455.949L379.159 446.86C377.62 446.261 375.977 445.969 374.324 446.003C372.671 446.036 371.042 446.393 369.528 447.053C368.014 447.713 366.645 448.664 365.501 449.851C364.357 451.038 363.459 452.438 362.858 453.971C362.258 455.503 361.967 457.138 362.003 458.783C362.038 460.427 362.399 462.049 363.065 463.554C363.73 465.06 364.688 466.42 365.882 467.557C367.077 468.694 368.485 469.586 370.026 470.181L381.738 474.732L440.169 497.422L446.18 499.755L446.802 500H516L512.489 498.633Z" fill="white"/>
<path d="M393.351 499.777L387.207 497.656L361.529 488.783C359.735 488.161 357.806 487.904 355.885 488.032C353.964 488.16 352.1 488.669 350.431 489.521C348.762 490.373 347.331 491.547 346.245 492.955C345.158 494.363 344.444 495.97 344.154 497.656C344.027 498.357 343.978 499.068 344.009 499.777C344.006 499.852 344.011 499.926 344.022 500H394L393.351 499.777Z" fill="white"/>
<path d="M446.079 500.515L440.021 498.141H345.281C345.156 498.926 345.108 499.721 345.138 500.515H332.186L332.342 500.764H446.706L446.079 500.515ZM446.079 500.515H332.186L332.342 500.764H446.706L446.079 500.515ZM446.079 500.515H332.186L332.342 500.764H446.706L446.079 500.515ZM446.706 500.764L446.079 500.515H332.186L332.342 500.764H446.706ZM218.201 763.377C214.068 763.371 210.107 761.719 207.184 758.784C204.262 755.849 202.618 751.87 202.611 747.719V444.294C202.615 440.141 204.258 436.159 207.181 433.222C210.103 430.284 214.066 428.63 218.201 428.623H242.499V426H218.201C213.374 426.009 208.748 427.94 205.336 431.369C201.925 434.798 200.006 439.446 200 444.294V747.719C200.004 751.226 201.012 754.658 202.903 757.606C204.794 760.554 207.489 762.894 210.667 764.348H440.7C440.491 764.033 440.282 763.705 440.073 763.377H218.201ZM598.986 503.859C597.29 502.052 595.245 500.613 592.974 499.629C590.704 498.646 588.258 498.14 585.786 498.141H333.792L319.691 475.611L319.351 475.06L307.391 455.953L293.995 434.551C292.353 431.936 290.079 429.781 287.386 428.286C284.692 426.791 281.666 426.005 278.588 426H218.201C213.374 426.009 208.748 427.94 205.336 431.369C201.925 434.798 200.006 439.446 200 444.294V747.719C200.004 751.226 201.012 754.658 202.903 757.606C204.794 760.554 207.489 762.894 210.667 764.348C213.03 765.44 215.6 766.004 218.201 766H585.786C588.391 766.004 590.966 765.44 593.333 764.348C596.511 762.894 599.206 760.554 601.097 757.606C602.988 754.658 603.996 751.226 604 747.719V516.436C604.003 511.752 602.207 507.247 598.986 503.859ZM601.389 747.719C601.381 751.872 599.735 755.852 596.81 758.788C593.885 761.723 589.92 763.373 585.786 763.377H218.201C214.068 763.371 210.107 761.719 207.184 758.784C204.262 755.849 202.618 751.87 202.611 747.719V444.294C202.615 440.141 204.258 436.159 207.181 433.222C210.103 430.284 214.066 428.63 218.201 428.623H278.588C281.228 428.616 283.825 429.285 286.135 430.568C288.445 431.851 290.391 433.705 291.788 435.954L304.297 455.953L316.257 475.06L318.502 478.654L332.186 500.515L332.342 500.764L585.786 500.764C589.923 500.768 593.889 502.42 596.815 505.358C599.74 508.296 601.385 512.28 601.389 516.436V747.719ZM446.079 500.515H332.186L332.342 500.764H446.706L446.079 500.515ZM446.079 500.515H332.186L332.342 500.764H446.706L446.079 500.515ZM446.079 500.515H332.186L332.342 500.764H446.706L446.079 500.515ZM446.079 500.515L440.021 498.141H333.792L319.691 475.611L318.502 478.654L332.186 500.515L332.342 500.764H446.706L446.079 500.515Z" fill="#3F3D56"/>
<path d="M144 608.533L136.662 624L74 602.827L84.8283 580L144 608.533Z" fill="#FFB8B8"/>
<path d="M127.473 634.825L142.627 603.141L161.659 612.245L138.098 661.506L136.643 660.809C131.981 658.58 128.396 654.589 126.676 649.716C124.956 644.843 125.243 639.487 127.473 634.825Z" fill="#2F2E41"/>
<path d="M189.438 464.486C189.438 464.486 135.968 450.953 111.729 470.897L98.1828 510.072L44 586.998L122.423 634.008L136.681 598.394L102.46 581.299L143.81 545.686L136.681 733.726L163.773 738C163.773 738 223.659 505.798 189.438 464.486Z" fill="#2F2E41"/>
<path d="M108 476L108.64 474.862C115.382 462.863 114.289 443.323 112.186 429.045C110.424 417.086 110.477 396.01 110.832 380.435C110.919 375.178 112.792 370.107 116.142 366.057C119.492 362.008 124.12 359.221 129.263 358.155C145.228 354.829 164.826 354.125 175.088 354C177.877 353.989 180.558 355.072 182.557 357.017C184.557 358.963 185.715 361.615 185.783 364.405C186.096 381.177 185.999 411.763 181.841 428.172C175.67 452.527 185.319 469.078 185.418 469.242L186 470.216L108 476Z" fill="#6C63FF"/>
<path d="M79.6884 544.67C81.4843 543.843 83.0697 542.646 84.3331 541.165C85.5964 539.684 86.507 537.955 87.0006 536.098C87.4942 534.242 87.5588 532.304 87.1899 530.421C86.8211 528.538 86.0276 526.756 84.8656 525.2L116 396H92.4617L64.984 522.653C62.3971 524.705 60.6823 527.599 60.1644 530.786C59.6465 533.974 60.3616 537.233 62.1741 539.947C63.9866 542.661 66.7706 544.641 69.9986 545.511C73.2266 546.382 76.6743 546.083 79.6884 544.67Z" fill="#FFB8B8"/>
<path d="M264 418.386L213.553 372L199.919 390.554L234.005 419.711L189.303 454.216C188.98 454.195 188.659 454.169 188.33 454.169C185.579 454.166 182.886 454.934 180.572 456.38C178.259 457.826 176.423 459.89 175.284 462.324C174.145 464.758 173.752 467.459 174.152 470.105C174.551 472.75 175.726 475.228 177.536 477.241C179.346 479.255 181.715 480.719 184.358 481.458C187.002 482.197 189.809 482.18 192.443 481.409C195.077 480.639 197.426 479.146 199.211 477.112C200.995 475.077 202.139 472.585 202.505 469.935L202.646 470.072L264 418.386Z" fill="#FFB8B8"/>
<path d="M128 360.443C128 360.443 95.3924 355.472 92.4354 378.832C89.4785 402.193 88 402.193 88 402.193C88 402.193 111.656 398.07 117.569 403.567C123.483 409.063 128 360.443 128 360.443Z" fill="#6C63FF"/>
<path d="M172 358.734C172 358.734 198.526 354.74 210.316 365.39C222.105 376.041 228 378.704 228 378.704C228 378.704 201.474 392.018 211.789 404C211.789 404 183.789 392.018 179.368 396.012C174.947 400.006 172 358.734 172 358.734Z" fill="#6C63FF"/>
<path d="M150.063 273.97C141.89 267.598 139.742 255.299 144.484 246.197C149.227 237.095 159.949 231.612 170.401 232.021C180.853 232.431 190.701 238.289 196.757 246.616C205.262 258.312 207.047 274.569 218.358 283.726C228.573 291.997 243.208 291.76 256.463 291.102C260.931 290.881 265.543 290.623 269.552 288.685C273.562 286.748 276.837 282.66 276.32 278.322C279.65 283.468 277.718 290.683 273.251 294.929C268.783 299.175 262.422 300.953 256.23 301.662C245.305 302.783 234.269 301.106 224.209 296.798C214.15 292.489 205.414 285.697 198.861 277.09C194.249 270.879 190.69 263.647 184.361 259.099C178.033 254.552 167.481 254.236 163.596 260.903C161.675 264.201 161.864 268.338 160.097 271.717C158.33 275.096 152.592 276.918 150.89 273.507" fill="#2F2E41"/>
<path d="M149 344C170.539 344 188 326.539 188 305C188 283.461 170.539 266 149 266C127.461 266 110 283.461 110 305C110 326.539 127.461 344 149 344Z" fill="#2F2E41"/>
<path d="M148 346C165.673 346 180 331.673 180 314C180 296.327 165.673 282 148 282C130.327 282 116 296.327 116 314C116 331.673 130.327 346 148 346Z" fill="#FFB8B8"/>
<path d="M120 289.189C124.519 290.216 123.04 298.093 126.611 301.148C129.833 303.904 134.472 301.07 138.526 300.044C143.644 298.748 149.002 300.646 153.728 303.065C158.453 305.484 163.01 308.487 168.166 309.614C173.321 310.741 179.433 309.47 182.323 304.894C185.086 300.518 184.069 294.617 181.907 289.889C179.219 284.011 175.001 279.033 169.73 275.519C164.458 272.004 158.345 270.094 152.083 270.003C145.82 269.913 139.659 271.647 134.296 275.009C128.933 278.37 124.584 283.225 121.74 289.023" fill="#2F2E41"/>
</svg>
