<?xml version="1.0" encoding="UTF-8"?>
<svg xmlns="http://www.w3.org/2000/svg" xmlns:xlink="http://www.w3.org/1999/xlink" width="322px" height="250px" viewBox="0 0 322 250" version="1.1">
<g id="surface1">
<path style=" stroke:none;fill-rule:nonzero;fill:rgb(94.901961%,94.901961%,94.901961%);fill-opacity:1;" d="M 42.007812 110.011719 C 30.023438 104.976562 20.414062 95.546875 15.148438 83.660156 C 12.203125 76.925781 10.765625 69.621094 9.949219 62.316406 C 9.144531 55.148438 8.980469 47.585938 12.066406 41.066406 C 15.5 33.808594 22.492188 28.882812 30.484375 28.09375 C 38.476562 27.308594 46.296875 30.777344 51.078125 37.226562 C 53.105469 39.957031 54.527344 43.234375 54.5625 46.632812 C 54.640625 53.761719 48.910156 59.480469 46.394531 66.152344 C 43.796875 73.046875 44.730469 80.683594 45.175781 88.039062 C 45.617188 95.394531 45.335938 103.367188 40.875 109.226562 "/>
<path style=" stroke:none;fill-rule:nonzero;fill:rgb(94.901961%,94.901961%,94.901961%);fill-opacity:1;" d="M 256.976562 200.15625 C 269.636719 197.1875 280.683594 189.496094 287.855469 178.652344 C 291.882812 172.503906 294.515625 165.539062 296.542969 158.472656 C 298.53125 151.542969 299.953125 144.113281 298 137.171875 C 295.824219 129.4375 289.75 123.417969 282 121.308594 C 274.25 119.199219 265.964844 121.3125 260.171875 126.875 C 257.71875 129.230469 255.769531 132.222656 255.167969 135.566406 C 253.902344 142.585938 258.601562 149.179688 259.96875 156.179688 C 261.378906 163.410156 259.183594 170.785156 257.519531 177.960938 C 255.859375 185.140625 254.804688 193.046875 258.226562 199.570312 "/>
<path style=" stroke:none;fill-rule:nonzero;fill:rgb(90.196078%,90.196078%,90.196078%);fill-opacity:1;" d="M 160.441406 188.707031 C 142.398438 188.765625 124.847656 182.847656 110.519531 171.878906 C 96.492188 161.15625 86.242188 146.246094 81.261719 129.308594 L 81.976562 129.101562 C 92.050781 163.757812 124.316406 187.964844 160.441406 187.964844 C 171.246094 187.984375 181.941406 185.851562 191.90625 181.683594 L 192.195312 182.371094 C 182.136719 186.574219 171.34375 188.726562 160.441406 188.707031 Z M 160.441406 188.707031 "/>
<path style=" stroke:none;fill-rule:nonzero;fill:rgb(90.196078%,90.196078%,90.196078%);fill-opacity:1;" d="M 238.4375 81.816406 C 227.71875 47.542969 196.375 24.515625 160.441406 24.515625 C 149.792969 24.496094 139.246094 26.570312 129.398438 30.621094 L 129.117188 29.933594 C 155.910156 18.960938 186.496094 22.824219 209.722656 40.121094 C 223.621094 50.53125 233.910156 65.035156 239.148438 81.59375 Z M 238.4375 81.816406 "/>
<path style=" stroke:none;fill-rule:nonzero;fill:rgb(24.705882%,23.921569%,33.72549%);fill-opacity:1;" d="M 260.71875 214.710938 C 226.929688 214.710938 199.4375 187.214844 199.4375 153.417969 C 199.4375 119.621094 226.929688 92.125 260.71875 92.125 C 294.511719 92.125 322 119.621094 322 153.417969 C 322 187.214844 294.511719 214.710938 260.71875 214.710938 Z M 260.71875 92.867188 C 227.339844 92.867188 200.183594 120.03125 200.183594 153.417969 C 200.183594 186.804688 227.339844 213.96875 260.71875 213.96875 C 294.101562 213.96875 321.257812 186.804688 321.257812 153.417969 C 321.257812 120.03125 294.101562 92.867188 260.71875 92.867188 Z M 260.71875 92.867188 "/>
<path style=" stroke:none;fill-rule:nonzero;fill:rgb(24.705882%,23.921569%,33.72549%);fill-opacity:1;" d="M 61.28125 122.585938 C 27.488281 122.585938 0 95.089844 0 61.292969 C 0 27.496094 27.488281 0 61.28125 0 C 95.070312 0 122.5625 27.496094 122.5625 61.292969 C 122.5625 95.089844 95.070312 122.585938 61.28125 122.585938 Z M 61.28125 0.742188 C 27.898438 0.742188 0.742188 27.90625 0.742188 61.292969 C 0.742188 94.679688 27.898438 121.84375 61.28125 121.84375 C 94.660156 121.84375 121.816406 94.679688 121.816406 61.292969 C 121.816406 27.90625 94.660156 0.742188 61.28125 0.742188 Z M 61.28125 0.742188 "/>
<path style=" stroke:none;fill-rule:nonzero;fill:rgb(62.745098%,38.039216%,41.568627%);fill-opacity:1;" d="M 56.515625 61.636719 L 51.105469 72.148438 L 56.449219 75.214844 C 56.449219 75.214844 60.113281 63.40625 60.222656 62.957031 C 61.351562 62.496094 62.082031 61.382812 62.054688 60.160156 C 62.023438 58.9375 61.246094 57.859375 60.09375 57.449219 C 58.941406 57.039062 57.65625 57.382812 56.863281 58.3125 C 56.070312 59.242188 55.929688 60.5625 56.515625 61.636719 Z M 56.515625 61.636719 "/>
<path style=" stroke:none;fill-rule:nonzero;fill:rgb(24.705882%,23.921569%,33.72549%);fill-opacity:1;" d="M 28.746094 63.066406 C 31.160156 72.011719 39.835938 77.695312 47.039062 84.503906 C 48.832031 85.132812 50.808594 84.980469 52.484375 84.078125 C 54.15625 83.175781 55.375 81.609375 55.832031 79.765625 L 58.261719 70.261719 L 52.089844 70.09375 L 49.535156 72.871094 L 41.269531 66.980469 Z M 28.746094 63.066406 "/>
<path style=" stroke:none;fill-rule:nonzero;fill:rgb(100%,71.372549%,71.372549%);fill-opacity:1;" d="M 251.609375 162.941406 C 253.789062 163.082031 255.457031 164.9375 255.375 167.117188 C 255.363281 167.332031 255.335938 167.542969 255.289062 167.753906 L 267.1875 175.25 L 260.609375 178.160156 L 250.316406 170.59375 C 248.570312 170.058594 247.402344 168.417969 247.472656 166.589844 C 247.578125 164.46875 249.382812 162.832031 251.503906 162.933594 C 251.539062 162.9375 251.574219 162.9375 251.609375 162.941406 Z M 251.609375 162.941406 "/>
<path style=" stroke:none;fill-rule:nonzero;fill:rgb(42.352941%,38.823529%,100%);fill-opacity:1;" d="M 263.085938 171.84375 L 260.136719 177.929688 L 271.796875 185.433594 C 273.484375 186.53125 275.617188 186.671875 277.4375 185.8125 C 279.667969 184.742188 280.925781 182.324219 280.519531 179.882812 L 276.734375 158.277344 C 276.207031 155.136719 273.316406 152.957031 270.15625 153.3125 C 267.035156 153.652344 264.78125 156.460938 265.121094 159.582031 C 265.128906 159.640625 265.136719 159.699219 265.144531 159.757812 C 265.171875 159.964844 265.214844 160.171875 265.265625 160.375 L 269.394531 175.742188 Z M 263.085938 171.84375 "/>
<path style=" stroke:none;fill-rule:nonzero;fill:rgb(24.705882%,23.921569%,33.72549%);fill-opacity:1;" d="M 252.488281 174.308594 L 248.09375 162.976562 C 247.78125 162.167969 248.183594 161.261719 248.992188 160.949219 L 251.460938 159.988281 C 252.269531 159.679688 253.175781 160.078125 253.488281 160.886719 L 257.878906 172.21875 C 258.191406 173.027344 257.792969 173.933594 256.984375 174.25 L 254.515625 175.207031 C 253.707031 175.515625 252.800781 175.117188 252.488281 174.308594 Z M 252.488281 174.308594 "/>
<path style=" stroke:none;fill-rule:nonzero;fill:rgb(42.352941%,38.823529%,100%);fill-opacity:1;" d="M 249.503906 161.414062 C 249.070312 161.582031 248.851562 162.070312 249.019531 162.507812 L 253.414062 173.839844 C 253.582031 174.273438 254.070312 174.492188 254.503906 174.324219 L 256.976562 173.367188 C 257.410156 173.195312 257.625 172.707031 257.457031 172.273438 L 253.066406 160.9375 C 252.898438 160.503906 252.40625 160.289062 251.972656 160.457031 Z M 249.503906 161.414062 "/>
<path style=" stroke:none;fill-rule:nonzero;fill:rgb(100%,72.156863%,72.156863%);fill-opacity:1;" d="M 278.933594 197.957031 L 262.257812 197.957031 L 262.257812 181.277344 L 278.933594 181.277344 Z M 278.933594 197.957031 "/>
<path style=" stroke:none;fill-rule:nonzero;fill:rgb(100%,71.372549%,71.372549%);fill-opacity:1;" d="M 222.707031 230.402344 L 216.339844 228.257812 L 212.792969 245.597656 L 217.105469 247.050781 Z M 222.707031 230.402344 "/>
<path style=" stroke:none;fill-rule:nonzero;fill:rgb(100%,71.372549%,71.372549%);fill-opacity:1;" d="M 234.003906 227.101562 L 227.460938 228.648438 L 233.613281 245.246094 L 238.042969 244.199219 Z M 234.003906 227.101562 "/>
<path style=" stroke:none;fill-rule:nonzero;fill:rgb(18.431373%,18.039216%,25.490196%);fill-opacity:1;" d="M 278.335938 202.316406 C 281.675781 224.605469 237.164062 211.425781 237.164062 211.425781 L 223.207031 230.683594 L 215.039062 229.199219 C 215.039062 229.199219 218.714844 217.636719 225.28125 202.140625 C 228.195312 195.257812 261.304688 196.9375 261.304688 196.9375 L 261.992188 191.542969 L 280.933594 191.171875 Z M 278.335938 202.316406 "/>
<path style=" stroke:none;fill-rule:nonzero;fill:rgb(18.431373%,18.039216%,25.490196%);fill-opacity:1;" d="M 235.761719 206.644531 L 223.636719 206.925781 C 225.582031 223.644531 227.292969 230.3125 227.292969 230.3125 L 234.351562 228.082031 Z M 235.761719 206.644531 "/>
<path style=" stroke:none;fill-rule:nonzero;fill:rgb(42.352941%,38.823529%,100%);fill-opacity:1;" d="M 268.808594 154.171875 L 272.164062 149.855469 L 276.953125 149.648438 L 277.429688 153.707031 L 279.804688 154.800781 C 282.171875 163.804688 282.539062 173.214844 280.875 182.375 C 280.226562 182.984375 279.960938 183.898438 280.175781 184.761719 L 280.332031 185.375 L 280.316406 185.394531 C 279.8125 186.191406 279.640625 187.15625 279.839844 188.078125 L 280.972656 190.089844 C 281.796875 191.558594 281.933594 193.3125 281.347656 194.886719 C 280.757812 196.460938 279.511719 197.699219 277.929688 198.269531 C 270.964844 200.796875 264.4375 201.738281 259.605469 194.652344 L 258.085938 169.957031 Z M 268.808594 154.171875 "/>
<path style=" stroke:none;fill-rule:nonzero;fill:rgb(100%,72.156863%,72.156863%);fill-opacity:1;" d="M 281.175781 142.148438 C 281.175781 147.039062 277.214844 151.003906 272.324219 151.003906 C 267.433594 151.003906 263.472656 147.039062 263.472656 142.148438 C 263.472656 137.257812 267.433594 133.292969 272.324219 133.292969 C 277.214844 133.292969 281.175781 137.257812 281.175781 142.148438 Z M 281.175781 142.148438 "/>
<path style=" stroke:none;fill-rule:nonzero;fill:rgb(18.431373%,18.039216%,25.490196%);fill-opacity:1;" d="M 276.769531 131.472656 C 280.515625 131.546875 283.488281 135.023438 283.410156 139.242188 C 286.183594 142.136719 285.265625 145.679688 282.949219 149.46875 C 278.707031 149.960938 277.71875 150.164062 274 151.679688 L 273.511719 149.390625 L 272.398438 152.375 C 271.453125 152.808594 270.515625 153.289062 269.585938 153.808594 C 268.917969 150.738281 269.082031 147.757812 270.878906 145.160156 C 272.476562 142.851562 268.589844 140.109375 265.8125 140.496094 L 265.851562 138.378906 L 265.152344 140.484375 C 264.070312 141.28125 262.871094 140.992188 261.644531 140.417969 C 259.648438 130.058594 275.082031 127.222656 276.769531 131.472656 Z M 276.769531 131.472656 "/>
<path style=" stroke:none;fill-rule:nonzero;fill:rgb(18.431373%,18.039216%,25.490196%);fill-opacity:1;" d="M 219.070312 249.984375 L 216.230469 249.613281 L 216.074219 246.867188 L 214.425781 249.378906 L 206.902344 248.394531 C 206.160156 248.296875 205.570312 247.730469 205.441406 246.996094 C 205.3125 246.257812 205.679688 245.527344 206.34375 245.183594 L 212.894531 241.816406 L 213.25 239.109375 L 219.519531 240.3125 Z M 219.070312 249.984375 "/>
<path style=" stroke:none;fill-rule:nonzero;fill:rgb(18.431373%,18.039216%,25.490196%);fill-opacity:1;" d="M 239.671875 248.421875 L 236.832031 248.785156 L 235.980469 246.171875 L 235.03125 249.019531 L 227.5 249.988281 C 226.761719 250.082031 226.042969 249.6875 225.734375 249.007812 C 225.421875 248.328125 225.585938 247.523438 226.144531 247.027344 L 231.621094 242.097656 L 231.273438 239.390625 L 237.644531 238.953125 Z M 239.671875 248.421875 "/>
<path style=" stroke:none;fill-rule:nonzero;fill:rgb(100%,71.372549%,71.372549%);fill-opacity:1;" d="M 252.675781 165.011719 C 254.855469 165.15625 256.527344 167.007812 256.441406 169.191406 C 256.429688 169.402344 256.402344 169.613281 256.355469 169.824219 L 268.253906 177.320312 L 261.675781 180.234375 L 251.382812 172.664062 C 249.636719 172.132812 248.472656 170.488281 248.542969 168.664062 C 248.644531 166.539062 250.449219 164.902344 252.570312 165.007812 C 252.605469 165.007812 252.640625 165.011719 252.675781 165.011719 Z M 252.675781 165.011719 "/>
<path style=" stroke:none;fill-rule:nonzero;fill:rgb(42.352941%,38.823529%,100%);fill-opacity:1;" d="M 264.152344 173.914062 L 261.203125 180 L 272.863281 187.507812 C 274.550781 188.601562 276.683594 188.746094 278.503906 187.882812 C 280.738281 186.816406 281.992188 184.398438 281.585938 181.953125 L 277.800781 160.347656 C 277.273438 157.207031 274.386719 155.027344 271.222656 155.382812 C 268.101562 155.726562 265.847656 158.53125 266.191406 161.652344 C 266.195312 161.710938 266.203125 161.769531 266.210938 161.828125 C 266.242188 162.035156 266.28125 162.242188 266.332031 162.445312 L 270.460938 177.8125 Z M 264.152344 173.914062 "/>
<path style=" stroke:none;fill-rule:nonzero;fill:rgb(62.745098%,38.039216%,41.568627%);fill-opacity:1;" d="M 41.007812 172.738281 L 44.75 174.425781 L 53.039062 160.800781 L 47.515625 158.308594 Z M 41.007812 172.738281 "/>
<path style=" stroke:none;fill-rule:nonzero;fill:rgb(18.431373%,18.039216%,25.490196%);fill-opacity:1;" d="M 39.117188 176.582031 L 50.617188 181.773438 L 50.683594 181.628906 C 51.800781 179.15625 50.699219 176.246094 48.226562 175.128906 L 46.84375 172.585938 L 42.203125 172.414062 L 41.199219 171.960938 Z M 39.117188 176.582031 "/>
<path style=" stroke:none;fill-rule:nonzero;fill:rgb(62.745098%,38.039216%,41.568627%);fill-opacity:1;" d="M 87.335938 154.207031 L 91.289062 153.097656 L 88.890625 137.328125 L 83.058594 138.964844 Z M 87.335938 154.207031 "/>
<path style=" stroke:none;fill-rule:nonzero;fill:rgb(18.431373%,18.039216%,25.490196%);fill-opacity:1;" d="M 88.355469 158.367188 L 100.503906 154.957031 L 100.460938 154.804688 C 99.726562 152.191406 97.015625 150.667969 94.40625 151.402344 L 91.710938 150.339844 L 88.042969 153.1875 L 86.984375 153.484375 Z M 88.355469 158.367188 "/>
<path style=" stroke:none;fill-rule:nonzero;fill:rgb(18.431373%,18.039216%,25.490196%);fill-opacity:1;" d="M 27.542969 108.125 C 27.644531 111.050781 33.859375 118.9375 37.128906 120.066406 C 37.683594 120.261719 38.007812 120.367188 38.007812 120.367188 L 39.148438 120.023438 L 52.925781 115.851562 C 55.339844 117.273438 62.539062 117.996094 68.445312 118.355469 C 73.144531 118.640625 75.765625 121.097656 75.765625 121.097656 C 77.152344 131.648438 81.148438 139.339844 85.761719 148.789062 L 91.292969 147.828125 L 86.066406 112.621094 C 85.835938 111.066406 84.699219 109.800781 83.179688 109.402344 L 45.578125 99.566406 C 45.578125 99.566406 43.503906 99.191406 39.128906 101.300781 C 31.929688 104.773438 27.46875 106 27.542969 108.125 Z M 27.542969 108.125 "/>
<path style=" stroke:none;fill-rule:nonzero;fill:rgb(18.431373%,18.039216%,25.490196%);fill-opacity:1;" d="M 34.726562 107.5625 C 33.464844 110.199219 35.335938 120.066406 37.710938 122.582031 L 38.34375 123.011719 L 38.554688 123.121094 C 39.980469 127.945312 55.28125 142.054688 55.28125 142.054688 C 50.113281 148.640625 45.507812 156.675781 43.453125 165.675781 L 49.429688 167.859375 L 66.25 142.742188 C 67.152344 141.394531 67.132812 139.632812 66.203125 138.304688 L 59.339844 128.527344 L 48.15625 106.863281 C 40.167969 106.617188 35.644531 105.640625 34.726562 107.5625 Z M 34.726562 107.5625 "/>
<path style=" stroke:none;fill-rule:nonzero;fill:rgb(24.705882%,23.921569%,33.72549%);fill-opacity:1;" d="M 27.765625 109.277344 C 27.75 109.277344 27.308594 108.128906 27.300781 108.125 C 27.152344 108.085938 25.136719 107.886719 25.589844 104.546875 L 26.171875 100.871094 L 25.605469 97.628906 L 24.652344 96.675781 L 26.183594 95.144531 L 25.242188 88.199219 L 24.882812 74.292969 C 23.980469 69.519531 24.214844 65.148438 28.59375 63.046875 L 33.617188 58.386719 L 39.328125 58.316406 L 45.8125 62.160156 L 48.953125 68.425781 L 50.171875 85.394531 L 51.082031 87.519531 L 51.003906 87.589844 C 50.996094 87.59375 50.390625 88.144531 50.117188 88.445312 C 49.988281 88.632812 50.234375 90.03125 50.539062 91.21875 L 50.929688 94.148438 L 49.945312 94.855469 L 51.226562 96.371094 L 54.726562 102.285156 L 54.515625 102.234375 C 54.28125 102.175781 52.082031 105.480469 27.929688 109.152344 C 27.816406 109.171875 27.8125 109.277344 27.765625 109.277344 Z M 27.765625 109.277344 "/>
<path style=" stroke:none;fill-rule:nonzero;fill:rgb(24.705882%,23.921569%,33.72549%);fill-opacity:1;" d="M 55.421875 72.546875 L 53.421875 71.5 C 52.769531 71.160156 52.515625 70.355469 52.855469 69.699219 L 57.644531 60.523438 C 57.984375 59.871094 58.792969 59.617188 59.445312 59.957031 L 61.445312 61 C 62.097656 61.34375 62.351562 62.148438 62.011719 62.804688 L 57.222656 71.980469 C 56.882812 72.632812 56.074219 72.886719 55.421875 72.546875 Z M 55.421875 72.546875 "/>
<path style=" stroke:none;fill-rule:nonzero;fill:rgb(42.352941%,38.823529%,100%);fill-opacity:1;" d="M 58.96875 60.304688 C 58.613281 60.121094 58.179688 60.257812 57.996094 60.609375 L 53.210938 69.785156 C 53.027344 70.136719 53.164062 70.570312 53.515625 70.753906 L 55.511719 71.800781 C 55.867188 71.984375 56.300781 71.847656 56.484375 71.496094 L 61.269531 62.320312 C 61.453125 61.964844 61.316406 61.53125 60.964844 61.347656 Z M 58.96875 60.304688 "/>
<path style=" stroke:none;fill-rule:nonzero;fill:rgb(62.745098%,38.039216%,41.568627%);fill-opacity:1;" d="M 45.929688 48.894531 C 45.929688 53.40625 42.273438 57.066406 37.761719 57.066406 C 33.25 57.066406 29.589844 53.40625 29.589844 48.894531 C 29.589844 44.382812 33.25 40.722656 37.761719 40.722656 C 42.273438 40.722656 45.929688 44.382812 45.929688 48.894531 Z M 45.929688 48.894531 "/>
<path style=" stroke:none;fill-rule:nonzero;fill:rgb(18.431373%,18.039216%,25.490196%);fill-opacity:1;" d="M 33.742188 54.15625 C 33.382812 53.871094 32.9375 53.722656 32.480469 53.734375 C 32.191406 53.78125 31.941406 53.949219 31.785156 54.195312 C 31.699219 54.304688 31.5625 54.363281 31.425781 54.347656 C 30.554688 54.378906 28.695312 52.761719 28.570312 49.640625 C 28.507812 48.160156 27.621094 45.648438 29.035156 44.289062 C 29.128906 43.742188 30.230469 38.070312 35.203125 37.914062 C 40.292969 37.753906 43.679688 38.777344 44.496094 40.714844 C 45.058594 42.257812 45.488281 43.84375 45.777344 45.460938 L 45.949219 46.417969 L 45.550781 45.527344 C 45.542969 45.511719 44.816406 43.917969 43.464844 43.386719 C 43.445312 43.648438 43.378906 43.902344 43.273438 44.136719 C 42.832031 45.089844 41.722656 45.714844 40.445312 45.722656 C 39.5625 45.695312 38.691406 45.507812 37.878906 45.171875 C 38.066406 45.445312 38.078125 45.800781 37.90625 46.085938 C 37.734375 46.367188 37.414062 46.523438 37.085938 46.484375 L 36.847656 46.457031 C 36.695312 46.4375 36.550781 46.53125 36.503906 46.675781 C 36.457031 46.824219 36.519531 46.984375 36.65625 47.058594 L 36.863281 47.167969 L 36.613281 47.289062 C 34.523438 48.222656 33.328125 50.445312 33.699219 52.703125 L 33.992188 54.359375 Z M 33.742188 54.15625 "/>
<path style=" stroke:none;fill-rule:nonzero;fill:rgb(90.196078%,90.196078%,90.196078%);fill-opacity:1;" d="M 163.082031 180.414062 C 162.625 180.4375 162.203125 180.167969 162.027344 179.746094 C 161.851562 179.324219 161.957031 178.835938 162.292969 178.523438 L 162.367188 178.226562 C 162.359375 178.203125 162.347656 178.179688 162.339844 178.15625 C 161.878906 177.070312 160.808594 176.363281 159.628906 176.367188 C 158.449219 176.375 157.386719 177.085938 156.933594 178.175781 C 156.050781 180.304688 154.925781 182.4375 154.648438 184.6875 C 154.527344 185.683594 154.578125 186.691406 154.800781 187.667969 C 152.726562 183.140625 151.648438 178.21875 151.640625 173.238281 C 151.640625 171.988281 151.710938 170.738281 151.847656 169.496094 C 151.964844 168.476562 152.125 167.464844 152.328125 166.460938 C 153.441406 161.015625 155.828125 155.910156 159.296875 151.566406 C 160.976562 150.648438 162.332031 149.238281 163.1875 147.527344 C 163.496094 146.914062 163.714844 146.257812 163.835938 145.578125 C 163.644531 145.601562 163.453125 145.617188 163.265625 145.632812 C 163.203125 145.632812 163.144531 145.636719 163.082031 145.640625 L 163.0625 145.640625 C 162.636719 145.660156 162.238281 145.429688 162.046875 145.046875 C 161.855469 144.667969 161.90625 144.210938 162.175781 143.878906 C 162.253906 143.78125 162.335938 143.679688 162.417969 143.578125 C 162.542969 143.421875 162.671875 143.269531 162.796875 143.117188 C 162.808594 143.101562 162.824219 143.085938 162.835938 143.070312 C 162.976562 142.890625 163.121094 142.71875 163.265625 142.542969 C 163.003906 142.136719 162.652344 141.796875 162.238281 141.550781 C 160.808594 140.710938 158.835938 141.292969 157.800781 142.589844 C 156.761719 143.882812 156.566406 145.699219 156.929688 147.316406 C 157.28125 148.695312 157.867188 150 158.660156 151.179688 C 158.582031 151.277344 158.5 151.375 158.425781 151.472656 C 157.003906 153.300781 155.769531 155.257812 154.734375 157.324219 C 154.984375 155.011719 154.683594 152.667969 153.855469 150.492188 C 153.015625 148.464844 151.441406 146.757812 150.050781 145.003906 C 148.386719 142.902344 144.972656 143.820312 144.675781 146.488281 C 144.675781 146.515625 144.671875 146.539062 144.667969 146.566406 C 144.875 146.683594 145.078125 146.804688 145.273438 146.9375 C 145.78125 147.273438 146.027344 147.890625 145.894531 148.484375 C 145.765625 149.082031 145.28125 149.535156 144.675781 149.628906 L 144.648438 149.632812 C 144.71875 150.375 144.851562 151.113281 145.035156 151.835938 C 146.117188 155.914062 148.851562 159.359375 152.582031 161.335938 C 152.703125 161.398438 152.820312 161.460938 152.941406 161.519531 C 151.902344 164.472656 151.246094 167.546875 151 170.667969 C 150.859375 172.507812 150.867188 174.355469 151.023438 176.195312 L 151.015625 176.132812 C 150.617188 174.085938 149.527344 172.238281 147.925781 170.90625 C 145.546875 168.953125 142.191406 168.234375 139.625 166.664062 C 139.070312 166.304688 138.355469 166.304688 137.796875 166.660156 C 137.238281 167.011719 136.9375 167.660156 137.023438 168.316406 C 137.027344 168.339844 137.03125 168.359375 137.035156 168.382812 C 137.417969 168.539062 137.789062 168.71875 138.148438 168.921875 C 138.355469 169.039062 138.558594 169.160156 138.753906 169.292969 C 139.261719 169.628906 139.507812 170.246094 139.378906 170.84375 C 139.246094 171.4375 138.761719 171.890625 138.160156 171.984375 L 138.128906 171.988281 C 138.105469 171.992188 138.085938 171.996094 138.066406 172 C 138.71875 173.558594 139.636719 174.992188 140.777344 176.242188 C 143.621094 179.296875 147.601562 181.042969 151.777344 181.070312 L 151.78125 181.070312 C 152.339844 183.507812 153.152344 185.882812 154.207031 188.148438 L 162.867188 188.148438 C 162.898438 188.054688 162.925781 187.953125 162.953125 187.859375 C 162.152344 187.910156 161.347656 187.859375 160.558594 187.714844 C 161.199219 186.925781 161.84375 186.132812 162.484375 185.34375 C 162.5 185.328125 162.511719 185.3125 162.523438 185.296875 C 162.851562 184.894531 163.179688 184.492188 163.507812 184.089844 C 163.523438 182.851562 163.382812 181.617188 163.082031 180.414062 Z M 163.082031 180.414062 "/>
<path style=" stroke:none;fill-rule:nonzero;fill:rgb(90.196078%,90.196078%,90.196078%);fill-opacity:1;" d="M 204.714844 46.085938 C 205.058594 46.390625 205.175781 46.878906 205.007812 47.304688 C 204.835938 47.730469 204.421875 48.003906 203.964844 47.992188 L 203.703125 48.152344 C 203.691406 48.179688 203.683594 48.203125 203.671875 48.226562 C 203.246094 49.324219 203.515625 50.574219 204.367188 51.394531 C 205.214844 52.21875 206.472656 52.449219 207.558594 51.984375 C 209.675781 51.074219 211.96875 50.335938 213.738281 48.914062 C 214.519531 48.289062 215.1875 47.53125 215.710938 46.675781 C 214.035156 51.367188 211.371094 55.644531 207.902344 59.214844 C 207.03125 60.113281 206.109375 60.957031 205.140625 61.75 C 204.347656 62.398438 203.527344 63.011719 202.683594 63.589844 C 198.085938 66.714844 192.8125 68.703125 187.296875 69.390625 C 185.453125 68.875 183.5 68.9375 181.691406 69.566406 C 181.042969 69.792969 180.425781 70.109375 179.867188 70.511719 C 180.019531 70.625 180.167969 70.75 180.3125 70.871094 C 180.359375 70.910156 180.40625 70.953125 180.449219 70.992188 L 180.464844 71.007812 C 180.785156 71.289062 180.90625 71.730469 180.777344 72.136719 C 180.648438 72.542969 180.296875 72.835938 179.871094 72.886719 C 179.742188 72.902344 179.613281 72.917969 179.484375 72.929688 C 179.289062 72.957031 179.089844 72.976562 178.894531 73 C 178.875 73 178.851562 73.003906 178.832031 73.003906 C 178.605469 73.03125 178.382812 73.058594 178.15625 73.085938 C 178.0625 73.554688 178.078125 74.042969 178.199219 74.507812 C 178.640625 76.109375 180.460938 77.070312 182.101562 76.867188 C 183.75 76.660156 185.15625 75.496094 186.027344 74.085938 C 186.734375 72.855469 187.226562 71.511719 187.484375 70.113281 C 187.609375 70.09375 187.730469 70.082031 187.855469 70.066406 C 190.148438 69.75 192.398438 69.210938 194.582031 68.453125 C 192.789062 69.933594 191.371094 71.820312 190.445312 73.957031 C 189.632812 75.996094 189.570312 78.320312 189.339844 80.542969 C 189.0625 83.214844 192.148438 84.941406 194.222656 83.234375 C 194.242188 83.21875 194.261719 83.199219 194.28125 83.183594 C 194.214844 82.957031 194.15625 82.726562 194.109375 82.496094 C 193.980469 81.898438 194.234375 81.285156 194.742188 80.953125 C 195.253906 80.617188 195.917969 80.628906 196.414062 80.984375 L 196.4375 81.003906 C 196.90625 80.417969 197.324219 79.800781 197.695312 79.15625 C 199.769531 75.476562 200.210938 71.101562 198.921875 67.082031 C 198.878906 66.953125 198.839844 66.828125 198.792969 66.699219 C 201.597656 65.3125 204.210938 63.566406 206.566406 61.503906 C 207.953125 60.285156 209.238281 58.957031 210.410156 57.527344 L 210.371094 57.582031 C 209.226562 59.324219 208.71875 61.40625 208.933594 63.480469 C 209.273438 66.539062 211.175781 69.398438 211.917969 72.3125 C 212.066406 72.957031 212.578125 73.457031 213.222656 73.589844 C 213.871094 73.726562 214.539062 73.472656 214.933594 72.945312 C 214.949219 72.925781 214.960938 72.90625 214.972656 72.886719 C 214.808594 72.507812 214.667969 72.121094 214.550781 71.726562 C 214.484375 71.5 214.425781 71.269531 214.375 71.039062 C 214.25 70.441406 214.503906 69.828125 215.011719 69.492188 C 215.523438 69.160156 216.1875 69.171875 216.683594 69.527344 L 216.707031 69.542969 C 216.726562 69.554688 216.742188 69.566406 216.757812 69.582031 C 217.378906 68.007812 217.726562 66.339844 217.78125 64.648438 C 217.871094 60.472656 216.242188 56.445312 213.269531 53.511719 L 213.269531 53.507812 C 214.566406 51.371094 215.640625 49.105469 216.472656 46.746094 L 210.269531 40.699219 C 210.179688 40.746094 210.089844 40.796875 210.003906 40.847656 C 210.613281 41.371094 211.15625 41.96875 211.621094 42.625 C 210.609375 42.738281 209.59375 42.859375 208.585938 42.976562 C 208.5625 42.976562 208.542969 42.980469 208.523438 42.980469 C 208.007812 43.042969 207.492188 43.101562 206.976562 43.160156 C 206.101562 44.035156 205.339844 45.019531 204.714844 46.085938 Z M 204.714844 46.085938 "/>
<path style=" stroke:none;fill-rule:nonzero;fill:rgb(62.745098%,38.039216%,41.568627%);fill-opacity:1;" d="M 55.398438 70.335938 L 47.589844 79.210938 L 52.023438 83.484375 C 52.023438 83.484375 58.457031 72.925781 58.671875 72.519531 C 59.878906 72.347656 60.859375 71.445312 61.128906 70.253906 C 61.398438 69.058594 60.90625 67.824219 59.890625 67.144531 C 58.875 66.46875 57.542969 66.488281 56.546875 67.195312 C 55.550781 67.902344 55.09375 69.152344 55.398438 70.335938 Z M 55.398438 70.335938 "/>
<path style=" stroke:none;fill-rule:nonzero;fill:rgb(24.705882%,23.921569%,33.72549%);fill-opacity:1;" d="M 28.117188 64.949219 C 28.277344 74.214844 35.308594 81.839844 40.632812 90.203125 C 42.222656 91.25 44.175781 91.582031 46.019531 91.117188 C 47.863281 90.648438 49.421875 89.425781 50.320312 87.75 L 54.992188 79.125 L 49.046875 77.457031 L 45.890625 79.527344 L 39.3125 71.800781 Z M 28.117188 64.949219 "/>
</g>
</svg>
