<?xml version="1.0" standalone="no"?>
<!DOCTYPE svg PUBLIC "-//W3C//DTD SVG 20010904//EN"
 "http://www.w3.org/TR/2001/REC-SVG-20010904/DTD/svg10.dtd">
<svg version="1.0" xmlns="http://www.w3.org/2000/svg"
 width="1200.000000pt" height="1200.000000pt" viewBox="0 0 1200.000000 1200.000000"
 preserveAspectRatio="xMidYMid meet">
<metadata>
Created by potrace 1.14, written by Peter Selinger 2001-2017
</metadata>
<g transform="translate(0.000000,1200.000000) scale(0.100000,-0.100000)"
fill="#000000" stroke="none">
<path d="M4065 10978 c-33 -3 -78 -9 -101 -11 -65 -8 -227 -55 -311 -90 -211
-89 -380 -221 -553 -434 -6 -7 -10 -15 -10 -18 0 -3 -9 -15 -20 -27 -11 -12
-20 -28 -20 -35 0 -7 -4 -13 -9 -13 -5 0 -16 -18 -24 -39 -9 -22 -21 -42 -27
-46 -6 -3 -8 -11 -5 -16 4 -5 1 -9 -5 -9 -6 0 -9 -4 -6 -9 4 -5 1 -11 -4 -13
-6 -2 -12 -10 -13 -18 -2 -8 -5 -20 -9 -25 -4 -6 -16 -40 -28 -75 -13 -36 -27
-70 -34 -76 -6 -7 -36 -19 -66 -29 -78 -24 -243 -109 -320 -163 -98 -69 -222
-186 -277 -260 -16 -20 -38 -48 -50 -62 -13 -14 -23 -30 -23 -37 0 -7 -4 -13
-9 -13 -5 0 -14 -15 -22 -32 -7 -18 -16 -35 -19 -38 -10 -7 -81 -159 -85 -182
-2 -10 -7 -23 -10 -28 -13 -20 -45 -151 -59 -237 -16 -98 -19 -307 -5 -380 23
-122 33 -163 55 -238 14 -44 31 -92 39 -107 l15 -27 -72 -36 c-40 -21 -93 -53
-118 -73 -49 -39 -150 -141 -150 -152 0 -4 -9 -17 -20 -30 -11 -13 -20 -29
-20 -37 0 -7 -4 -13 -8 -13 -12 0 -62 -119 -78 -185 -34 -135 -33 -295 1 -442
9 -37 30 -131 46 -208 38 -177 35 -163 63 -300 3 -11 22 -101 44 -200 22 -99
42 -194 45 -212 3 -17 8 -36 11 -41 3 -5 8 -24 11 -43 3 -19 21 -106 40 -194
19 -88 37 -171 39 -185 3 -14 28 -128 56 -255 28 -126 52 -239 54 -250 6 -28
114 -526 132 -605 8 -36 30 -137 49 -225 65 -304 366 -1691 430 -1990 36 -165
84 -383 106 -485 79 -368 110 -459 204 -599 44 -66 164 -194 202 -215 10 -5
27 -18 37 -28 11 -10 25 -18 32 -18 7 0 14 -3 16 -8 7 -16 157 -83 238 -106
47 -14 123 -28 170 -32 109 -10 4662 -11 4755 -1 145 15 303 74 436 162 67 45
239 207 269 254 8 13 20 29 26 35 6 7 15 22 18 34 4 12 12 22 17 22 6 0 7 4 4
10 -3 5 -2 10 3 10 8 0 60 105 67 134 1 6 5 18 8 26 5 13 14 49 22 85 2 6 7
28 13 50 6 22 13 51 16 65 3 14 8 36 11 50 3 14 7 36 10 50 3 14 7 35 10 47 3
13 7 33 10 45 3 13 8 37 10 53 3 17 10 44 14 60 5 17 13 48 17 70 4 22 8 45
10 50 1 6 5 26 9 45 3 19 10 51 15 70 5 19 11 46 14 60 2 14 7 32 10 40 3 8 7
31 10 50 3 19 8 46 11 60 3 14 8 36 11 50 3 14 12 54 20 90 8 36 17 76 20 90
3 14 8 34 10 45 3 11 9 40 14 65 18 85 19 92 24 108 3 9 8 33 11 52 3 19 11
55 16 80 6 25 12 52 14 61 2 9 13 61 25 115 27 125 29 134 35 164 3 14 7 36
10 50 3 14 8 34 10 45 5 20 10 42 20 87 3 13 7 34 10 48 3 14 7 36 10 50 8 34
14 61 19 85 2 11 14 65 26 120 12 55 24 109 26 120 2 11 6 31 9 45 4 14 8 36
11 50 3 14 9 41 14 60 5 19 12 49 14 65 3 17 8 41 11 55 3 14 8 36 11 50 3 14
12 54 20 90 20 86 29 129 39 180 10 53 14 72 19 88 3 9 7 28 10 42 3 14 7 36
10 50 3 14 8 36 11 50 10 49 15 70 19 89 2 10 14 63 26 117 12 55 23 106 25
114 3 15 36 167 39 185 1 6 5 19 9 30 3 11 8 36 11 55 3 19 8 46 11 60 3 14 8
36 11 49 3 12 11 51 19 85 8 33 16 72 19 86 3 14 8 36 11 50 3 14 7 36 10 50
9 48 13 66 28 125 9 33 19 78 22 100 4 22 8 45 9 50 12 45 16 63 20 85 2 14 9
43 14 65 6 22 13 57 16 79 4 21 8 41 10 45 3 3 7 26 11 51 4 25 8 48 11 51 4
6 27 113 39 176 3 16 7 38 10 51 3 12 7 32 10 45 3 12 8 36 10 52 3 17 10 44
15 60 5 17 11 44 14 60 3 17 7 41 11 55 3 14 7 36 10 50 3 14 7 35 10 48 3 12
7 32 10 45 7 31 18 155 17 197 -1 137 -51 304 -126 419 -55 85 -178 211 -206
211 -6 0 -10 5 -10 10 0 6 -7 10 -15 10 -8 0 -15 5 -15 11 0 5 -4 7 -10 4 -5
-3 -10 -2 -10 3 0 5 -22 19 -49 31 l-50 21 15 29 c8 17 17 38 19 48 2 10 11
38 20 63 9 25 22 74 30 110 8 37 17 79 20 95 4 17 8 98 10 180 3 115 0 173
-15 250 -28 152 -86 323 -131 387 -11 14 -19 32 -19 38 0 14 -100 159 -144
209 -49 55 -140 144 -175 171 -18 14 -47 37 -64 52 -18 15 -38 28 -44 28 -7 0
-13 3 -13 8 0 4 -15 13 -32 21 -18 8 -35 17 -38 21 -9 12 -154 77 -220 99
l-65 22 -19 62 c-41 129 -152 326 -239 425 -79 89 -209 209 -244 225 -13 6
-23 14 -23 19 0 4 -7 8 -15 8 -8 0 -15 5 -15 10 0 6 -7 10 -15 10 -8 0 -15 5
-15 11 0 5 -4 7 -10 4 -5 -3 -10 -2 -10 3 0 9 -156 86 -163 80 -2 -1 -10 2
-18 8 -11 10 -135 51 -174 58 -5 1 -19 5 -30 8 -11 4 -40 9 -65 12 -25 3 -56
8 -70 11 -61 12 -259 7 -380 -9 -186 -26 -501 -172 -623 -289 -62 -60 -61 -59
-89 -35 -61 56 -86 76 -116 93 -18 11 -32 23 -32 27 0 4 -7 8 -15 8 -8 0 -15
4 -15 9 0 5 -19 16 -42 26 -24 9 -51 24 -60 32 -10 9 -18 12 -18 7 0 -5 -4 -3
-9 4 -4 7 -14 15 -22 16 -8 2 -32 11 -53 20 -22 10 -48 19 -58 21 -10 2 -23 7
-28 10 -5 3 -20 8 -32 11 -29 6 -39 9 -58 17 -8 3 -40 10 -70 16 -311 57 -615
10 -888 -135 -58 -31 -111 -61 -117 -67 -7 -7 -23 -19 -35 -27 -28 -18 -93
-72 -116 -94 -18 -18 -23 -16 -80 39 -46 44 -181 135 -201 135 -6 0 -13 4 -15
8 -3 8 -109 62 -133 69 -5 1 -42 13 -82 27 -39 14 -83 28 -97 31 -96 20 -124
24 -181 30 -83 9 -187 11 -250 3z m215 -841 c86 -17 195 -82 259 -154 70 -79
109 -164 122 -266 20 -159 29 -201 54 -251 107 -209 354 -288 568 -180 55 28
155 126 163 161 4 12 9 23 14 23 15 0 38 96 45 190 6 82 15 126 36 175 7 17
12 33 11 38 -1 4 2 7 7 7 5 0 12 11 15 25 4 14 11 25 16 25 6 0 10 5 10 11 0
24 117 122 185 154 229 111 486 40 629 -174 45 -66 72 -153 80 -256 7 -79 20
-142 36 -174 4 -9 13 -28 21 -44 15 -32 91 -113 134 -143 79 -54 193 -77 300
-60 176 27 322 183 340 361 3 28 8 73 11 100 2 28 5 53 5 57 0 7 16 48 52 131
7 15 15 27 19 27 5 0 8 6 8 13 0 16 118 127 156 147 16 8 31 17 34 20 17 19
144 45 215 44 103 -1 135 -8 215 -47 101 -49 174 -119 219 -207 45 -89 52
-112 66 -255 13 -130 55 -218 143 -296 73 -64 153 -95 269 -103 151 -12 252
-51 337 -132 130 -123 182 -285 149 -458 -24 -130 -97 -239 -212 -319 -43 -29
-141 -72 -141 -62 0 3 -10 0 -22 -7 -32 -17 -5597 -20 -5675 -2 -29 6 -53 9
-53 6 0 -2 -7 2 -17 9 -9 8 -17 12 -17 10 -1 -6 -101 44 -118 59 -131 110
-192 224 -201 375 -6 102 36 249 91 312 9 12 26 32 37 45 24 28 98 87 140 110
47 26 133 46 220 53 134 10 214 44 298 126 78 77 114 159 123 280 3 44 7 88
10 99 2 11 6 28 8 38 16 67 73 169 125 222 68 68 172 124 251 135 25 4 47 9
50 12 4 5 123 -3 160 -10z m-39 -2739 c3 -42 8 -105 13 -188 4 -52 8 -113 11
-135 2 -22 7 -81 10 -132 3 -50 7 -113 9 -140 3 -26 7 -88 11 -138 3 -49 8
-124 11 -165 3 -41 7 -97 9 -125 12 -189 17 -254 20 -279 2 -16 7 -81 11 -145
3 -64 7 -132 9 -151 5 -64 15 -204 20 -275 3 -38 7 -99 10 -135 8 -98 15 -207
20 -290 3 -41 7 -97 10 -125 2 -27 7 -90 10 -140 7 -104 13 -181 20 -280 3
-38 7 -104 10 -145 3 -41 7 -102 10 -135 3 -33 7 -96 10 -140 3 -44 8 -107 10
-140 2 -33 7 -98 10 -145 3 -47 8 -112 10 -145 5 -63 12 -149 20 -280 3 -44 7
-102 9 -130 2 -27 7 -93 11 -145 3 -52 8 -117 10 -145 5 -55 13 -173 20 -275
3 -36 7 -96 10 -135 2 -38 7 -106 10 -150 3 -44 8 -102 10 -130 3 -27 7 -90
10 -140 3 -49 8 -119 11 -155 2 -36 6 -89 8 -118 l4 -53 -482 4 c-264 2 -489
5 -498 8 -26 8 -55 37 -66 67 -6 15 -26 101 -46 192 -19 91 -76 352 -125 580
-232 1071 -270 1247 -275 1270 -2 14 -13 66 -25 115 -11 50 -22 101 -25 115
-3 14 -25 120 -51 235 -25 116 -55 251 -65 300 -10 50 -44 205 -75 345 -31
140 -58 266 -61 280 -7 38 -54 252 -61 280 -3 14 -8 34 -10 45 -2 11 -10 52
-18 90 -9 39 -17 79 -19 90 -3 11 -9 40 -15 65 -5 25 -12 56 -15 70 -2 14 -32
151 -66 305 -34 154 -63 287 -65 295 -21 104 -167 780 -171 793 -5 16 43 17
915 17 730 0 921 -3 922 -12z m2674 -80 c-3 -51 -8 -111 -10 -133 -2 -22 -6
-85 -10 -140 -3 -55 -8 -120 -10 -145 -3 -25 -7 -83 -10 -130 -8 -132 -16
-241 -20 -290 -4 -43 -9 -125 -21 -290 -2 -41 -7 -97 -9 -125 -2 -27 -7 -90
-10 -140 -3 -49 -7 -112 -10 -140 -2 -27 -7 -88 -10 -135 -3 -47 -7 -112 -10
-145 -3 -33 -7 -96 -10 -140 -3 -44 -8 -105 -10 -135 -3 -30 -7 -95 -10 -145
-3 -49 -7 -112 -10 -140 -3 -27 -7 -90 -10 -140 -3 -49 -7 -115 -10 -145 -3
-30 -7 -86 -10 -125 -2 -38 -7 -110 -10 -160 -3 -49 -8 -110 -10 -135 -2 -25
-6 -85 -10 -135 -3 -49 -8 -117 -10 -150 -3 -33 -7 -94 -10 -135 -3 -41 -7
-100 -10 -130 -2 -30 -7 -98 -10 -150 -3 -52 -8 -115 -10 -140 -3 -25 -7 -83
-10 -130 -6 -94 -13 -197 -20 -280 -3 -30 -7 -95 -10 -145 -3 -49 -7 -115 -10
-145 -3 -30 -7 -89 -10 -130 -3 -41 -7 -102 -10 -135 -2 -33 -7 -103 -10 -155
-3 -52 -8 -113 -10 -135 -2 -22 -7 -89 -11 -150 -3 -60 -8 -117 -9 -125 -2
-13 -68 -15 -526 -15 l-524 0 -1 25 c-2 33 -14 200 -20 270 -2 30 -6 93 -9
140 -3 47 -7 110 -10 140 -2 30 -7 96 -10 145 -3 50 -8 110 -10 135 -2 25 -7
86 -10 135 -3 50 -8 113 -10 140 -2 28 -6 93 -10 145 -3 52 -8 115 -10 139 -3
24 -7 87 -10 140 -3 53 -7 114 -10 136 -2 22 -7 87 -10 145 -4 58 -8 121 -10
140 -2 19 -6 80 -10 135 -3 55 -8 116 -10 135 -3 19 -7 83 -10 143 -3 59 -7
122 -10 140 -2 17 -7 79 -10 137 -4 58 -8 128 -10 155 -2 28 -6 86 -9 130 -3
44 -8 107 -10 140 -8 94 -16 203 -21 290 -8 129 -15 217 -20 265 -2 25 -7 90
-10 145 -3 55 -8 120 -10 145 -2 25 -6 90 -10 145 -4 55 -8 116 -10 135 -2 19
-6 80 -10 135 -4 55 -8 123 -11 150 -2 28 -6 86 -9 130 -3 44 -8 110 -11 147
-2 37 -7 100 -9 140 -3 40 -7 102 -10 138 -5 63 -12 160 -20 285 -2 33 -7 95
-10 138 l-7 77 922 0 922 0 -7 -92z m2680 71 c-2 -11 -6 -28 -9 -37 -3 -9 -8
-30 -11 -47 -6 -34 -6 -35 -35 -169 -21 -96 -26 -120 -34 -161 -2 -11 -9 -38
-14 -60 -6 -22 -13 -53 -16 -70 -6 -37 -13 -71 -20 -93 -3 -9 -8 -33 -11 -52
-3 -19 -11 -55 -16 -80 -16 -70 -19 -82 -25 -120 -3 -19 -8 -38 -10 -41 -2 -3
-6 -21 -9 -40 -3 -19 -10 -50 -15 -69 -5 -19 -12 -53 -16 -75 -3 -22 -8 -43
-10 -46 -2 -3 -6 -19 -8 -35 -3 -16 -8 -39 -11 -51 -13 -57 -15 -69 -19 -88
-2 -11 -9 -40 -15 -65 -5 -25 -13 -60 -16 -79 -3 -19 -7 -37 -9 -40 -2 -3 -7
-22 -10 -41 -8 -47 -14 -78 -20 -98 -3 -9 -8 -35 -12 -56 -3 -22 -10 -50 -15
-63 -5 -13 -7 -23 -4 -23 2 0 -1 -15 -6 -32 -5 -18 -12 -46 -15 -63 -3 -16
-10 -50 -15 -75 -16 -70 -19 -82 -25 -120 -3 -19 -8 -38 -10 -41 -2 -3 -6 -19
-8 -35 -3 -16 -8 -39 -11 -51 -3 -13 -7 -33 -10 -45 -3 -13 -7 -34 -10 -48 -3
-14 -7 -36 -10 -50 -3 -14 -8 -36 -11 -50 -3 -14 -7 -33 -10 -42 -5 -17 -10
-42 -20 -92 -2 -16 -6 -32 -8 -35 -2 -3 -7 -23 -10 -43 -3 -21 -11 -59 -17
-85 -6 -27 -13 -59 -15 -73 -3 -14 -9 -41 -14 -60 -5 -19 -17 -71 -26 -115 -9
-44 -18 -88 -20 -97 -2 -10 -6 -26 -8 -35 -2 -10 -12 -54 -21 -98 -18 -88 -19
-91 -34 -155 -5 -25 -13 -60 -16 -79 -3 -19 -7 -37 -9 -40 -2 -3 -7 -22 -10
-41 -3 -19 -8 -46 -11 -60 -3 -14 -8 -36 -11 -50 -3 -14 -7 -33 -10 -42 -3
-10 -7 -28 -10 -40 -2 -13 -11 -54 -20 -93 -8 -38 -17 -83 -20 -100 -2 -16 -7
-39 -11 -50 -3 -11 -7 -29 -9 -40 -2 -11 -5 -30 -8 -42 -11 -45 -17 -69 -26
-113 -9 -45 -16 -76 -25 -115 -4 -19 -7 -33 -20 -95 -3 -14 -8 -36 -11 -50 -3
-14 -7 -36 -10 -50 -3 -14 -10 -45 -15 -70 -6 -25 -13 -56 -15 -70 -3 -14 -7
-33 -10 -42 -5 -16 -9 -35 -19 -88 -10 -51 -13 -66 -23 -105 -6 -22 -14 -53
-17 -70 -9 -50 -15 -79 -20 -100 -9 -39 -35 -160 -40 -185 -5 -24 -8 -40 -20
-92 -3 -13 -8 -39 -11 -58 -17 -100 -49 -150 -129 -201 -28 -18 -55 -19 -492
-19 l-462 0 4 33 c2 17 6 79 10 137 3 58 8 130 10 160 3 30 7 89 10 130 3 41
8 102 10 135 2 33 7 96 10 140 6 93 13 180 20 285 3 41 8 102 10 135 9 131 16
232 20 280 3 28 7 95 10 150 4 55 8 115 10 135 2 19 6 80 10 135 3 55 8 120
10 145 2 25 7 86 10 135 3 50 8 113 10 140 2 28 7 91 10 140 3 50 8 117 11
150 2 33 6 94 9 135 3 41 7 107 10 145 6 72 9 125 20 280 3 50 8 110 10 135 3
25 7 83 10 130 3 47 8 117 10 155 9 119 16 218 20 270 2 28 6 91 10 140 3 50
8 113 10 140 4 56 16 216 20 285 5 75 16 232 20 280 2 25 7 88 10 140 4 52 8
118 11 145 2 28 6 88 9 135 3 47 7 108 10 135 2 28 7 91 10 140 5 74 11 155
14 198 1 4 415 7 920 7 l920 0 -4 -21z"/>
</g>
</svg>
